<?xml version="1.0" standalone="no"?>
<!DOCTYPE svg PUBLIC "-//W3C//DTD SVG 20010904//EN"
 "http://www.w3.org/TR/2001/REC-SVG-20010904/DTD/svg10.dtd">
<svg version="1.0" xmlns="http://www.w3.org/2000/svg"
 width="997.000000pt" height="632.000000pt" viewBox="0 0 997.000000 632.000000"
 preserveAspectRatio="xMidYMid meet">

<g transform="translate(0.000000,632.000000) scale(0.100000,-0.100000)"
fill="#000000" stroke="none">
<path d="M0 4831 c0 -1182 3 -1490 13 -1494 9 -4 9 -6 0 -6 -30 -2 -9 -19 27
-23 22 -2 40 0 40 4 0 5 -4 8 -10 8 -5 0 -10 7 -10 16 0 10 6 14 14 11 10 -4
13 -1 9 9 -3 9 2 14 16 14 32 0 25 20 -9 27 -34 6 -46 18 -29 29 6 3 15 1 19
-6 6 -9 9 -9 16 1 4 8 2 15 -5 17 -17 6 27 52 50 52 9 0 22 7 29 15 9 10 9 15
1 15 -6 0 -11 9 -11 20 0 12 5 17 14 14 25 -10 30 18 6 38 -16 13 -18 18 -7
18 9 0 21 8 27 18 8 14 9 12 4 -9 -4 -19 -1 -28 10 -32 9 -4 16 -18 16 -34 0
-22 2 -25 10 -13 5 8 10 27 10 43 0 20 5 27 20 27 13 0 18 5 14 15 -8 21 25
20 41 -2 8 -11 14 -13 19 -4 4 6 0 14 -8 17 -27 10 -18 34 15 41 19 4 27 9 21
15 -6 6 -17 6 -30 -1 -25 -13 -39 11 -17 29 8 6 11 18 9 25 -5 13 13 14 61 5
20 -4 35 0 35 10 0 6 -16 10 -35 10 -19 0 -35 5 -35 10 0 6 9 10 20 10 11 0
20 5 20 10 0 16 32 11 45 -7 12 -16 16 -16 39 -3 15 7 29 23 32 35 3 12 13 21
25 21 13 0 17 -5 14 -17 -3 -10 0 -21 7 -25 7 -4 10 -4 6 1 -4 4 0 14 10 21
12 9 13 13 4 14 -15 0 -8 55 11 78 7 9 5 11 -9 6 -17 -5 -17 -4 -2 5 9 6 28
12 42 13 18 2 24 7 23 22 -3 34 30 32 38 -3 4 -21 11 -28 21 -24 10 3 11 9 5
17 -5 6 -9 15 -8 19 1 5 -9 15 -23 23 l-25 15 33 -4 c17 -2 32 0 32 5 0 4 31
8 69 8 39 0 73 5 76 10 4 6 11 8 16 4 6 -3 13 4 16 16 4 14 11 19 21 15 8 -3
19 0 23 7 6 9 12 8 27 -5 21 -19 32 -22 32 -8 0 5 -8 12 -17 14 -12 3 -10 5 7
6 30 2 57 17 47 27 -3 4 -13 1 -22 -6 -9 -7 -19 -10 -22 -6 -4 4 -1 11 7 16
11 7 12 11 0 25 -11 14 -10 17 8 22 12 3 22 10 22 16 0 18 39 -24 43 -47 4
-17 5 -17 6 5 1 20 8 29 27 33 19 5 24 11 19 26 -5 16 -2 20 16 20 18 0 19 2
9 15 -7 8 -16 12 -21 9 -5 -3 -9 -1 -9 4 0 9 40 25 46 19 2 -1 4 -15 6 -30 5
-31 24 -48 45 -40 16 6 17 30 1 35 -13 5 -2 28 13 28 6 0 7 -4 4 -10 -10 -16
3 -12 24 8 47 42 70 55 55 30 -5 -7 -2 -9 9 -5 16 6 41 -15 30 -26 -3 -4 -1
-7 5 -7 7 0 12 4 12 10 0 5 7 7 15 4 17 -7 21 11 5 21 -15 9 -12 25 4 25 8 0
16 -7 20 -15 9 -23 24 -18 22 9 -1 20 -6 23 -31 21 -27 -3 -30 0 -31 26 -1 16
3 29 7 29 5 0 8 -6 7 -12 -2 -8 10 -14 27 -16 16 -2 34 -10 40 -18 15 -21 42
-8 50 24 3 14 9 21 13 16 4 -6 15 -13 25 -17 13 -5 17 -1 17 21 0 41 14 55 57
56 40 1 63 15 63 39 0 9 8 14 18 12 9 -1 11 0 5 2 -7 3 -13 8 -13 13 0 5 7 7
16 3 14 -5 16 -1 12 20 -7 36 9 59 17 24 4 -14 13 -31 21 -38 17 -14 19 -33 2
-23 -9 5 -9 2 1 -9 22 -28 34 -20 28 18 -3 19 -1 37 5 41 5 3 8 15 5 25 -3 12
-1 17 6 12 6 -4 8 2 5 15 -4 12 -5 22 -3 22 8 0 62 -57 67 -70 3 -10 6 -8 10
8 4 12 2 20 -3 16 -5 -3 -9 0 -9 5 0 6 7 11 15 11 8 0 15 5 15 10 0 6 7 10 15
10 12 0 35 28 35 44 0 11 -28 6 -32 -6 -3 -8 -9 -8 -24 0 -19 11 -19 11 2 12
11 0 26 6 33 13 11 10 14 10 18 0 6 -17 23 -16 23 1 0 8 7 17 16 20 12 5 14 1
9 -15 -5 -14 -3 -19 3 -15 6 3 13 2 17 -4 3 -5 -1 -10 -9 -10 -21 0 -31 -21
-15 -31 8 -5 20 -2 30 7 8 7 20 14 26 14 6 0 9 9 6 20 -3 11 -9 20 -14 20 -5
0 -4 9 3 20 17 27 30 25 26 -3 -1 -13 5 -32 15 -41 16 -17 17 -17 14 3 -2 11
-6 24 -10 27 -15 15 14 30 52 27 27 -2 41 2 44 11 5 12 -4 14 -38 13 -24 -1
-41 2 -38 7 3 4 -1 12 -8 17 -11 7 -10 9 4 9 9 0 17 -4 17 -9 0 -5 8 -8 18 -6
17 3 18 7 7 38 -4 10 -3 17 4 17 11 0 15 -19 13 -52 -1 -14 3 -16 21 -9 24 9
47 4 47 -10 0 -4 -7 -6 -14 -3 -13 5 -13 2 -3 -20 12 -26 31 -37 21 -12 -7 18
25 29 42 15 8 -7 19 -7 30 -1 9 5 25 7 36 4 14 -3 17 0 12 12 -5 14 -9 14 -37
-1 -22 -11 -32 -12 -35 -4 -2 6 -12 11 -23 11 -10 0 -19 4 -19 9 0 5 -3 17 -7
27 -4 11 -3 15 5 10 6 -3 13 2 15 11 2 10 3 2 1 -17 -1 -19 0 -27 2 -17 6 18
24 24 24 7 0 -5 5 -10 12 -10 9 0 9 3 0 12 -21 21 -14 48 13 48 18 0 23 -4 18
-16 -5 -14 -3 -14 15 -3 11 7 19 17 16 21 -3 4 2 5 10 2 9 -3 16 -1 16 5 0 6
3 10 8 9 4 -2 7 2 7 7 0 6 -3 9 -7 7 -5 -1 -8 7 -8 18 0 11 3 20 6 20 12 0 34
-29 35 -47 0 -16 1 -16 9 2 8 18 9 18 10 -5 l2 -25 8 25 c4 14 9 21 9 15 1 -5
7 -3 14 5 7 8 21 17 32 18 11 2 23 9 27 15 5 7 8 3 8 -10 0 -12 -6 -23 -13
-26 -6 -2 -9 -7 -6 -11 15 -16 37 8 38 42 3 78 4 87 8 74 3 -6 9 -10 14 -6 5
3 9 -2 9 -10 0 -8 -5 -18 -10 -21 -6 -4 -8 -11 -5 -16 4 -5 1 -9 -4 -9 -6 0
-11 -5 -11 -11 0 -8 5 -8 15 1 8 7 15 19 15 26 0 8 5 14 11 14 6 0 8 -7 5 -16
-3 -8 -2 -13 2 -10 5 3 14 -4 22 -14 8 -10 17 -17 22 -14 4 3 1 12 -7 20 -12
12 -13 20 -4 36 11 20 12 20 24 4 9 -12 15 -14 20 -6 4 7 2 17 -4 23 -16 16
-13 31 4 17 16 -13 39 -4 29 12 -4 7 -2 8 4 4 8 -4 12 0 12 11 0 10 5 25 10
33 8 11 9 8 4 -12 -5 -23 -3 -28 12 -28 16 0 16 -2 -4 -16 -23 -16 -30 -44
-11 -44 5 0 7 4 4 10 -3 5 3 17 15 27 11 10 20 24 21 33 0 10 2 11 6 3 2 -7
11 -13 19 -13 8 0 14 -6 14 -14 0 -8 4 -17 8 -20 5 -3 8 18 6 47 -3 37 -1 45
5 27 l8 -25 5 25 c4 21 5 22 7 4 1 -17 6 -20 29 -17 l27 5 -30 -21 c-16 -11
-25 -21 -18 -21 6 0 20 -3 30 -6 15 -5 16 -4 3 6 -12 9 -9 10 15 6 22 -5 26
-4 15 4 -13 8 -13 11 -1 19 11 7 9 13 -8 30 -11 11 -21 17 -21 11 0 -5 -5 -10
-11 -10 -6 0 -9 6 -6 13 2 6 -2 20 -11 30 -9 10 -11 17 -4 17 6 0 15 -7 20
-17 7 -11 15 -14 28 -8 11 5 27 9 38 10 23 3 68 -19 59 -28 -3 -4 -1 -7 5 -7
6 0 14 5 17 10 3 6 1 10 -5 10 -7 0 -10 7 -6 15 4 10 -1 15 -14 15 -12 0 -20
7 -20 16 0 13 -3 14 -14 5 -11 -9 -15 -9 -19 1 -4 8 -6 7 -6 -4 -1 -19 -16
-24 -26 -9 -3 5 0 13 6 17 8 4 7 9 -2 16 -10 6 -6 7 11 2 14 -4 35 -7 48 -6
12 1 22 -2 22 -7 0 -5 9 -11 19 -14 21 -5 34 21 21 44 -5 8 -2 20 7 28 13 12
14 11 8 -9 -4 -14 -3 -20 3 -16 5 3 12 -1 16 -9 3 -8 1 -15 -4 -15 -6 0 -10
-9 -10 -20 0 -25 20 -27 21 -2 2 56 6 71 22 86 12 12 21 15 30 8 7 -5 22 -13
35 -16 17 -6 22 -3 22 12 0 13 6 18 23 17 12 -1 27 5 33 13 9 13 12 13 17 -1
4 -11 -2 -17 -24 -22 -16 -4 -29 -11 -29 -16 0 -13 27 -11 53 3 30 17 66 17
60 1 -6 -17 -20 -17 -26 0 -2 6 -8 9 -12 5 -5 -5 -5 -11 -2 -15 10 -10 67 -11
61 -1 -3 5 0 16 8 25 8 11 9 14 1 10 -17 -10 -53 14 -53 35 0 10 -7 18 -15 18
-8 0 -15 -4 -15 -10 0 -5 5 -10 11 -10 5 0 7 -5 3 -11 -4 -8 -9 -7 -15 2 -17
28 -10 44 21 45 21 1 30 -4 30 -15 1 -13 3 -13 15 3 15 19 15 19 15 -2 0 -12
-5 -22 -11 -22 -5 0 -7 -5 -3 -11 4 -8 9 -8 13 -1 4 6 38 10 83 8 82 -2 98 7
79 43 -6 10 -6 23 0 32 6 10 9 11 9 1 0 -7 4 -10 10 -7 5 3 10 19 10 35 0 16
4 31 9 35 9 5 7 -33 -4 -87 -2 -10 0 -18 5 -18 4 0 11 20 14 45 4 25 12 45 17
45 6 0 8 -9 4 -20 -8 -25 4 -92 16 -85 4 3 4 17 -1 31 -12 31 -12 37 -1 30 14
-9 21 20 8 33 -8 8 -8 14 1 23 9 9 12 7 12 -9 0 -25 16 -39 23 -21 2 7 8 10
12 6 4 -4 2 -14 -5 -23 -8 -10 -9 -15 -1 -15 6 0 11 -12 11 -27 0 -42 14 -17
15 27 1 22 4 42 8 46 3 3 -1 13 -9 21 -22 22 -10 27 20 8 14 -9 30 -14 36 -10
5 3 10 1 10 -4 0 -19 22 -12 46 14 27 30 31 30 37 8 3 -11 5 -7 6 10 0 15 6
27 12 27 6 0 8 -8 4 -19 -9 -29 14 -36 36 -12 11 12 24 21 29 21 6 0 10 4 10
8 0 4 -12 8 -27 7 -17 0 -28 6 -29 15 0 9 1 10 3 3 7 -21 43 -15 53 10 8 20 9
21 11 2 1 -11 0 -26 -1 -34 -2 -20 21 -61 32 -55 4 3 8 -2 8 -10 0 -9 2 -16 5
-16 5 0 55 50 55 55 0 12 -24 3 -35 -12 -11 -15 -12 -14 -8 12 5 29 5 29 -10
10 -8 -11 -19 -17 -22 -13 -4 4 -1 14 8 22 20 20 95 17 101 -4 2 -8 4 0 5 18
0 17 5 32 10 32 5 0 7 -8 4 -18 -3 -13 2 -18 20 -20 20 -1 23 2 20 22 -5 22
18 56 38 56 13 0 11 -18 -3 -23 -10 -4 -9 -8 2 -16 12 -9 13 -12 1 -20 -7 -5
-9 -11 -4 -14 16 -10 28 7 31 43 5 43 7 46 27 30 9 -7 18 -10 21 -7 3 3 -4 14
-15 24 -25 21 -27 39 -5 47 13 5 14 3 6 -6 -16 -20 32 -72 55 -60 14 9 14 10
-5 16 -14 5 -22 15 -21 29 1 15 3 17 6 6 2 -10 18 -19 36 -22 37 -5 48 0 27
13 -11 7 -12 12 -3 21 9 9 13 6 19 -15 6 -26 40 -49 57 -39 4 2 7 18 7 36 0
29 1 30 15 11 12 -16 14 -17 15 -2 0 9 10 18 22 20 12 2 27 12 33 24 6 13 19
20 33 19 16 -1 22 4 23 19 1 18 2 18 8 -4 5 -16 14 -24 26 -23 11 1 27 -3 36
-8 11 -6 20 -5 24 1 3 5 -1 10 -9 10 -18 0 -19 6 -6 35 5 11 9 15 9 9 1 -6 15
-11 31 -11 22 0 29 4 26 14 -3 7 -1 13 4 13 5 0 12 9 15 21 4 11 9 18 12 16 2
-3 0 -15 -7 -26 -6 -12 -7 -21 -1 -21 5 0 11 7 15 15 3 8 10 15 17 15 6 0 9
-7 6 -14 -4 -10 -1 -13 9 -9 7 3 14 0 14 -6 0 -5 9 -15 21 -21 18 -10 20 -9
17 7 -2 10 -9 17 -15 16 -6 -1 -14 4 -17 12 -8 21 23 19 46 -2 18 -16 19 -16
25 5 3 12 9 22 14 22 5 0 9 10 9 21 0 17 3 19 14 10 10 -8 16 -8 25 3 12 14
54 30 47 18 -2 -4 0 -16 4 -27 7 -19 8 -19 18 5 5 14 6 26 1 28 -5 2 -9 8 -9
14 0 6 6 6 15 -2 19 -16 45 -6 45 17 0 10 5 25 11 33 9 12 10 11 6 -7 -3 -13
-1 -26 4 -29 15 -9 10 -27 -6 -21 -8 4 -17 1 -21 -5 -5 -7 5 -9 32 -3 l39 7
-20 -24 c-11 -12 -24 -26 -30 -30 -16 -11 -2 -17 28 -11 19 4 24 8 17 13 -10
6 -7 14 8 30 13 15 19 33 18 55 -3 28 -1 32 18 27 12 -3 27 -11 34 -18 14 -15
16 -38 2 -29 -5 3 -10 2 -10 -3 0 -6 6 -12 14 -15 19 -7 39 16 26 29 -12 12
-1 56 12 48 5 -3 7 -12 4 -20 -3 -8 -1 -14 4 -14 5 0 12 9 15 20 7 21 25 28
25 9 0 -6 -5 -19 -10 -30 -13 -23 -4 -25 17 -4 8 9 12 23 9 31 -4 11 1 18 14
21 16 4 18 8 9 19 -8 10 -7 17 4 28 19 19 28 10 21 -21 -7 -25 12 -57 28 -47
6 4 5 9 -2 14 -7 4 -9 13 -6 19 4 6 12 8 18 5 6 -4 8 1 4 14 -5 14 -1 21 11
24 23 6 43 -1 43 -14 0 -5 -9 -6 -20 -3 -11 4 -20 2 -20 -4 0 -6 5 -11 11 -11
6 0 9 -8 7 -18 -4 -12 1 -18 13 -18 12 0 17 7 16 21 -2 15 3 19 21 18 13 -2
21 1 17 7 -3 6 -13 10 -21 10 -8 0 -14 4 -14 10 0 12 62 1 71 -12 3 -6 9 0 12
11 3 12 10 21 17 21 6 0 8 -5 4 -11 -5 -8 1 -10 20 -7 17 3 29 0 34 -8 7 -12
11 -12 27 1 19 14 19 14 -7 15 -18 0 -28 5 -28 15 0 8 5 15 10 15 6 0 10 -4
10 -8 0 -5 13 -8 30 -7 17 1 30 -3 30 -9 1 -6 8 2 16 18 13 22 18 26 25 15 13
-21 12 7 -1 32 -6 10 -7 19 -2 19 4 0 15 -16 22 -36 8 -20 16 -31 18 -25 2 6
8 9 13 6 14 -10 -3 29 -19 41 -11 8 0 10 46 7 40 -3 62 -1 62 6 0 6 7 11 15
11 18 0 20 17 3 23 -7 2 -10 8 -5 12 10 11 36 -26 30 -42 -6 -15 13 -18 22 -3
3 6 12 10 18 10 8 0 8 -3 -2 -9 -8 -5 -9 -11 -3 -15 11 -7 25 21 16 35 -3 5
-12 9 -20 9 -8 0 -14 5 -14 10 0 13 52 1 62 -14 4 -6 5 -19 2 -28 -3 -10 0
-18 6 -18 6 0 9 4 6 9 -4 5 0 12 6 14 10 4 10 8 -1 15 -8 6 -9 12 -3 16 13 8
25 -25 17 -46 -4 -11 3 -19 26 -27 49 -17 57 -13 24 10 l-30 21 40 -6 c28 -4
35 -2 25 4 -12 8 -11 11 8 16 15 4 22 14 23 33 0 25 1 25 11 5 8 -18 46 -44
62 -44 2 0 -11 16 -30 37 -18 20 -31 40 -27 46 3 5 13 -2 22 -17 16 -26 54
-36 66 -16 4 7 14 6 28 -2 12 -7 26 -12 30 -13 4 0 12 -7 17 -15 7 -11 10 -6
10 20 0 19 5 42 10 50 8 11 9 8 4 -12 -5 -22 -3 -28 10 -28 9 0 25 -5 36 -12
28 -18 39 1 13 22 -27 21 -29 30 -8 30 8 0 15 -4 15 -9 0 -5 8 -12 18 -16 14
-5 15 -4 5 6 -7 7 -13 18 -13 24 0 14 43 15 53 1 4 -7 10 -6 17 4 8 12 10 10
10 -9 0 -20 -4 -22 -25 -17 -18 5 -25 2 -25 -8 0 -8 -5 -16 -11 -18 -7 -2 -9
-13 -4 -27 5 -18 13 -22 31 -18 16 3 28 -1 34 -12 5 -9 10 -11 10 -4 0 6 -7
19 -16 27 -8 9 -11 16 -6 16 5 0 12 14 16 30 4 24 11 30 31 30 16 0 25 -6 25
-15 0 -12 7 -14 26 -9 21 5 31 2 46 -17 l19 -24 -7 40 -6 40 21 -22 c12 -13
27 -23 34 -22 8 0 9 2 1 5 -7 3 -10 14 -7 25 4 15 13 19 31 17 14 -2 27 -9 30
-16 3 -11 0 -12 -17 -3 -27 15 -27 1 -1 -22 22 -19 35 -22 25 -7 -4 6 5 10 20
10 l26 0 -21 22 c-11 12 -17 24 -14 27 4 3 9 0 11 -6 3 -7 11 -13 18 -13 7 0
16 6 18 13 3 6 6 -5 6 -25 1 -20 6 -40 12 -43 16 -10 24 4 11 17 -7 7 -12 16
-12 22 0 10 37 -30 43 -47 2 -7 8 -9 12 -4 5 4 4 12 -3 19 -16 16 13 41 55 45
29 3 34 1 31 -14 -2 -10 -9 -18 -16 -18 -6 0 -12 -3 -12 -7 0 -5 0 -15 0 -24
0 -8 5 -12 10 -9 6 4 8 11 5 16 -4 5 0 9 9 9 8 0 17 -6 20 -12 3 -7 3 -2 0 12
-7 25 -7 25 15 6 19 -17 21 -17 21 -3 0 10 -6 17 -12 17 -23 0 15 20 39 20 12
0 23 6 26 13 3 9 7 9 19 -1 11 -9 18 -10 23 -2 4 6 14 9 22 8 9 -2 18 3 21 11
2 8 1 11 -4 8 -5 -2 -14 1 -20 7 -9 10 -3 12 26 12 l38 -1 -22 -37 c-18 -31
-19 -39 -7 -50 11 -11 13 -10 9 2 -6 18 30 73 42 65 5 -3 10 5 12 17 4 33 36
35 48 4 10 -28 40 -36 40 -11 0 8 -8 15 -17 15 -14 0 -13 3 5 16 24 16 30 49
10 57 -7 3 -4 5 8 4 12 -1 21 -6 21 -12 0 -33 4 -46 15 -39 8 5 9 -5 5 -35 -5
-42 -5 -43 20 -36 14 3 31 1 39 -6 11 -9 14 -8 14 2 0 8 -13 20 -30 27 -17 8
-30 21 -29 30 0 11 2 12 6 4 2 -6 10 -9 15 -6 6 4 17 -1 23 -10 11 -14 15 -15
26 -3 8 7 21 11 29 9 11 -4 10 -1 -3 12 -9 10 -17 23 -16 29 0 9 2 8 6 0 7
-18 24 -16 39 4 7 10 15 15 19 12 3 -4 -1 -14 -10 -22 -20 -21 -19 -27 4 -27
11 0 23 -5 26 -10 4 -6 1 -9 -6 -8 -6 2 -14 -3 -16 -10 -4 -9 5 -11 34 -6 40
6 54 19 46 41 -3 7 2 13 12 13 9 0 14 -4 11 -9 -8 -12 4 -41 16 -41 5 0 7 4 3
9 -3 5 5 12 17 14 l23 4 -22 2 c-22 1 -34 21 -13 21 6 0 10 9 10 21 0 33 24
17 35 -24 9 -33 12 -35 23 -19 11 15 12 15 8 0 -8 -27 5 -28 30 -3 25 25 31
45 14 45 -5 0 -10 -7 -10 -15 0 -8 -4 -15 -9 -15 -6 0 -9 12 -8 28 2 23 -2 27
-20 24 -19 -3 -23 1 -22 20 1 17 3 18 6 6 5 -20 18 -23 28 -7 5 7 14 4 26 -7
10 -9 19 -12 19 -6 0 5 9 8 20 5 25 -7 26 -20 3 -26 -17 -4 -17 -5 0 -6 10 -1
17 -9 17 -22 0 -11 4 -18 8 -15 5 3 7 19 4 36 -3 23 0 30 12 30 12 0 14 -7 10
-29 -6 -30 9 -50 22 -29 4 6 2 14 -4 16 -26 8 -10 21 25 19 32 -2 38 1 39 20
1 14 -6 23 -19 27 -12 3 -18 8 -15 11 3 4 20 -1 38 -10 26 -13 29 -19 19 -31
-19 -23 -4 -27 16 -4 14 16 15 22 5 35 -7 8 -20 15 -28 15 -11 0 -13 3 -6 10
8 8 19 7 36 -1 19 -8 31 -8 46 0 18 9 21 8 24 -12 2 -12 9 -23 16 -23 6 -1 16
-2 20 -3 5 0 8 -11 8 -22 -1 -12 5 -24 13 -27 10 -3 12 2 7 22 -4 15 -2 26 4
26 5 0 10 -10 10 -23 0 -14 6 -24 15 -24 17 0 20 23 5 32 -6 4 -8 11 -4 16 3
5 0 17 -7 25 -10 12 -8 17 7 29 18 14 18 14 -3 15 -12 0 -30 -8 -39 -17 -17
-17 -18 -17 -11 -1 5 15 0 18 -36 16 -23 0 -45 -6 -49 -12 -5 -8 -8 -7 -8 1 0
10 -825 13 -3990 13 l-3990 0 0 -1489z m7670 1410 c3 -2 -5 -1 -17 2 -13 3
-26 1 -29 -4 -3 -5 -14 -9 -25 -9 -11 0 -18 4 -14 10 3 5 12 7 20 4 8 -4 18 1
21 10 6 16 13 14 44 -13z m-270 -6 c-7 -8 -9 -19 -5 -25 3 -5 2 -10 -3 -10 -5
0 -12 9 -15 20 -3 11 -1 18 4 14 5 -3 9 2 9 11 0 9 5 13 10 10 8 -5 7 -11 0
-20z m85 15 c3 -6 -1 -7 -9 -4 -18 7 -21 14 -7 14 6 0 13 -4 16 -10z m-687
-41 c-3 -8 -7 -3 -11 10 -4 17 -3 21 5 13 5 -5 8 -16 6 -23z m752 10 c0 -11
-4 -18 -10 -14 -5 3 -7 12 -3 20 7 21 13 19 13 -6z m36 -5 c8 3 14 1 14 -4 0
-6 -7 -10 -15 -10 -8 0 -15 -9 -15 -19 0 -22 -17 -37 -28 -26 -4 4 -1 10 6 12
6 3 13 21 13 41 1 21 3 29 6 19 3 -11 11 -16 19 -13z m-612 7 c3 -5 -1 -11 -9
-14 -9 -4 -12 -1 -8 9 6 16 10 17 17 5z m-287 -23 c-3 -8 -6 -5 -6 6 -1 11 2
17 5 13 3 -3 4 -12 1 -19z m743 -13 c0 -8 -4 -16 -9 -19 -5 -3 -8 5 -7 18 1
25 16 26 16 1z m-233 -7 c-3 -8 -6 -5 -6 6 -1 11 2 17 5 13 3 -3 4 -12 1 -19z
m-442 -17 c-3 -6 -11 -11 -16 -11 -5 0 -4 6 3 14 14 16 24 13 13 -3z m314 -2
c-22 -13 -31 -11 -17 5 7 8 17 12 22 9 4 -3 2 -9 -5 -14z m-170 -13 c0 -12 -3
-15 -6 -8 -2 6 -9 10 -14 6 -5 -3 -9 1 -9 9 0 7 7 14 15 14 9 0 15 -9 14 -21z
m-832 -8 c-3 -8 -6 -5 -6 6 -1 11 2 17 5 13 3 -3 4 -12 1 -19z m923 -4 c0 -19
-21 -28 -30 -13 -11 16 -5 26 15 26 8 0 15 -6 15 -13z m100 12 c0 -3 -4 -8
-10 -11 -5 -3 -10 -1 -10 4 0 6 5 11 10 11 6 0 10 -2 10 -4z m-520 -16 c0 -5
-5 -10 -11 -10 -5 0 -7 5 -4 10 3 6 8 10 11 10 2 0 4 -4 4 -10z m470 -5 c0 -8
-7 -15 -15 -15 -26 0 -18 20 13 29 1 1 2 -6 2 -14z m-845 -35 c3 -5 -3 -10
-14 -10 -12 0 -21 5 -21 10 0 6 6 10 14 10 8 0 18 -4 21 -10z m-159 -16 c-3
-8 -1 -24 4 -34 6 -11 6 -21 1 -24 -10 -6 -24 51 -15 65 9 15 17 10 10 -7z
m217 9 c-7 -2 -19 -2 -25 0 -7 3 -2 5 12 5 14 0 19 -2 13 -5z m47 -2 c0 -6 -4
-13 -10 -16 -5 -3 -10 1 -10 9 0 9 5 16 10 16 6 0 10 -4 10 -9z m-225 -40 c-9
-16 -25 -3 -18 15 4 10 9 12 15 6 6 -6 7 -15 3 -21z m-272 -6 c-3 -9 -8 -14
-10 -11 -3 3 -2 9 2 15 9 16 15 13 8 -4z m647 5 c0 -5 -5 -10 -11 -10 -5 0 -7
5 -4 10 3 6 8 10 11 10 2 0 4 -4 4 -10z m-760 -51 c0 -6 -4 -7 -10 -4 -5 3
-10 11 -10 16 0 6 5 7 10 4 6 -3 10 -11 10 -16z m-140 1 c0 -5 -2 -10 -4 -10
-3 0 -8 5 -11 10 -3 6 -1 10 4 10 6 0 11 -4 11 -10z m-95 -19 c3 -5 1 -12 -5
-16 -5 -3 -10 1 -10 9 0 18 6 21 15 7z m116 -24 c-8 -8 -11 -7 -11 4 0 9 3 19
7 23 4 4 9 2 11 -4 3 -7 -1 -17 -7 -23z m-341 14 c0 -5 -9 -7 -20 -4 -11 3
-20 7 -20 9 0 2 9 4 20 4 11 0 20 -4 20 -9z m320 5 c0 -3 -4 -8 -10 -11 -5 -3
-10 -1 -10 4 0 6 5 11 10 11 6 0 10 -2 10 -4z m-205 -16 c3 -5 1 -10 -4 -10
-6 0 -11 5 -11 10 0 6 2 10 4 10 3 0 8 -4 11 -10z m80 -10 c-3 -5 -12 -10 -18
-10 -7 0 -6 4 3 10 19 12 23 12 15 0z m95 -4 c0 -11 -19 -15 -25 -6 -3 5 1 10
9 10 9 0 16 -2 16 -4z m-241 -50 c0 -7 -2 -6 -6 2 -2 6 -11 12 -19 12 -9 0
-12 5 -9 10 8 13 35 -6 34 -24z m-96 -20 c18 -14 23 -46 7 -46 -5 0 -10 9 -10
20 0 11 -7 20 -15 20 -8 0 -15 5 -15 10 0 13 11 12 33 -4z m-272 -29 c-10 -9
-11 -8 -5 6 3 10 9 15 12 12 3 -3 0 -11 -7 -18z m89 13 c0 -5 -4 -10 -10 -10
-5 0 -10 5 -10 10 0 6 5 10 10 10 6 0 10 -4 10 -10z m-197 -55 c-3 -9 -8 -14
-10 -11 -3 3 -2 9 2 15 9 16 15 13 8 -4z m297 5 c0 -5 -4 -10 -10 -10 -5 0
-10 5 -10 10 0 6 5 10 10 10 6 0 10 -4 10 -10z m-330 -56 c0 -21 -17 -17 -23
5 -3 14 -1 18 9 14 8 -3 14 -11 14 -19z m100 22 c0 -3 -4 -8 -10 -11 -5 -3
-10 -1 -10 4 0 6 5 11 10 11 6 0 10 -2 10 -4z m-158 -31 c-6 -32 -20 -32 -18
0 0 14 6 25 12 25 7 0 9 -10 6 -25z m-114 -32 c10 -10 17 -24 16 -30 -1 -7 -2
-17 -3 -23 0 -5 -8 -10 -17 -10 -11 0 -14 5 -9 18 11 28 11 34 -2 39 -7 3 -13
-2 -13 -11 0 -10 -6 -13 -16 -9 -13 5 -13 7 -2 14 7 5 9 9 5 9 -12 0 2 20 14
20 5 0 18 -8 27 -17z m-138 -17 c0 -2 -7 -7 -16 -10 -8 -3 -12 -2 -9 4 6 10
25 14 25 6z m60 -16 c0 -4 -6 -10 -14 -13 -10 -4 -12 0 -9 14 5 18 23 18 23
-1z m-230 -61 c-14 -26 -18 -24 -12 6 2 14 8 22 13 19 5 -3 5 -14 -1 -25z
m184 7 c-8 -21 -64 -22 -64 -1 0 18 12 19 29 3 11 -11 15 -10 24 4 14 20 20
17 11 -6z m-76 -77 c2 -19 1 -21 -7 -9 -6 8 -11 11 -11 5 0 -5 -4 -3 -9 5 -6
8 -7 18 -4 23 9 15 28 1 31 -24z m-208 -9 c0 -5 -5 -10 -11 -10 -5 0 -7 5 -4
10 3 6 8 10 11 10 2 0 4 -4 4 -10z m-160 -44 c0 -11 -19 -15 -25 -6 -3 5 1 10
9 10 9 0 16 -2 16 -4z m40 -26 c0 -5 -4 -10 -10 -10 -5 0 -10 5 -10 10 0 6 5
10 10 10 6 0 10 -4 10 -10z m-420 -50 c0 -5 -4 -10 -10 -10 -5 0 -10 5 -10 10
0 6 5 10 10 10 6 0 10 -4 10 -10z m-152 -85 c9 -20 9 -25 -1 -25 -19 0 -36 21
-30 36 8 21 18 17 31 -11z m-273 -15 c3 -5 1 -10 -4 -10 -6 0 -11 5 -11 10 0
6 2 10 4 10 3 0 8 -4 11 -10z m210 1 c10 -17 -31 -32 -57 -22 -22 9 -11 16 19
12 6 -1 14 3 18 9 8 12 12 13 20 1z m-180 -30 c3 -5 2 -12 -3 -15 -5 -3 -9 1
-9 9 0 17 3 19 12 6z m263 -18 c2 -9 -11 -13 -47 -13 -38 0 -51 4 -51 15 0 18
91 16 98 -2z m-428 3 c0 -3 -4 -8 -10 -11 -5 -3 -10 -1 -10 4 0 6 5 11 10 11
6 0 10 -2 10 -4z m110 -5 c0 -5 8 -11 18 -13 15 -3 15 -4 1 -10 -9 -4 -20 1
-27 13 -8 12 -8 19 -2 19 5 0 10 -4 10 -9z m-115 -31 c3 -5 1 -10 -4 -10 -6 0
-11 5 -11 10 0 6 2 10 4 10 3 0 8 -4 11 -10z m-40 -20 c-3 -5 -12 -10 -18 -10
-7 0 -6 4 3 10 19 12 23 12 15 0z m-45 -44 c0 -3 -4 -8 -10 -11 -5 -3 -10 -1
-10 4 0 6 5 11 10 11 6 0 10 -2 10 -4z m37 -40 c0 -11 -5 -13 -19 -5 -10 5
-18 12 -18 14 0 3 8 5 18 5 10 0 19 -7 19 -14z m-127 -10 c0 -2 -7 -9 -15 -16
-13 -11 -14 -10 -9 4 5 14 24 23 24 12z m-119 -66 c-5 -8 -11 -22 -14 -30 -5
-10 -6 -8 -4 5 1 11 -2 25 -6 32 -5 8 -1 11 12 10 14 -1 17 -5 12 -17z m-91
-54 c0 -3 -4 -8 -10 -11 -5 -3 -10 -1 -10 4 0 6 5 11 10 11 6 0 10 -2 10 -4z
m-120 -26 c6 -11 8 -20 6 -20 -3 0 -10 9 -16 20 -6 11 -8 20 -6 20 3 0 10 -9
16 -20z m-95 -19 c-6 -5 -25 10 -25 20 0 5 6 4 14 -3 8 -7 12 -15 11 -17z
m163 -1 c-7 -10 -14 -18 -15 -16 -6 6 9 36 18 36 5 0 4 -9 -3 -20z m-98 -42
c0 -5 -9 -3 -20 4 -11 7 -20 16 -20 20 0 5 9 3 20 -4 11 -7 20 -16 20 -20z
m-41 -32 c-3 -3 -11 5 -18 17 -13 21 -12 21 5 5 10 -10 16 -20 13 -22z m-259
-30 c0 -3 -4 -8 -10 -11 -5 -3 -10 -1 -10 4 0 6 5 11 10 11 6 0 10 -2 10 -4z
m77 -28 c-3 -8 -6 -5 -6 6 -1 11 2 17 5 13 3 -3 4 -12 1 -19z m-127 -12 c0 -2
-7 -7 -16 -10 -8 -3 -12 -2 -9 4 6 10 25 14 25 6z m-73 -28 c-3 -8 -6 -5 -6 6
-1 11 2 17 5 13 3 -3 4 -12 1 -19z m-97 -48 c0 -5 -5 -10 -11 -10 -5 0 -7 5
-4 10 3 6 8 10 11 10 2 0 4 -4 4 -10z m-150 -132 c0 -16 -3 -19 -11 -11 -6 6
-8 16 -5 22 11 17 16 13 16 -11z m-33 -20 c-3 -7 -5 -2 -5 12 0 14 2 19 5 13
2 -7 2 -19 0 -25z m-147 -53 c0 -8 -4 -15 -10 -15 -5 0 -13 -12 -16 -26 -6
-24 -8 -25 -17 -9 -7 14 -6 21 7 30 9 7 16 17 16 24 0 6 5 11 10 11 6 0 10 -7
10 -15z m-72 -30 c0 -19 -4 -35 -10 -35 -5 0 -6 5 -3 10 3 6 2 10 -3 10 -8 0
7 50 15 50 0 0 1 -16 1 -35z m-33 -45 c4 -6 -7 -10 -25 -10 -18 0 -29 4 -25
10 3 6 15 10 25 10 10 0 22 -4 25 -10z m-158 -6 c-3 -3 -12 -4 -19 -1 -8 3 -5
6 6 6 11 1 17 -2 13 -5z m83 -19 c0 -8 -4 -15 -10 -15 -5 0 -10 7 -10 15 0 8
5 15 10 15 6 0 10 -7 10 -15z m30 -16 c0 -6 -4 -7 -10 -4 -5 3 -10 11 -10 16
0 6 5 7 10 4 6 -3 10 -11 10 -16z m-73 -18 c-3 -14 -1 -18 9 -14 19 7 18 -21
-1 -37 -29 -24 -46 11 -25 51 14 25 24 25 17 0z m-247 -27 c0 -8 -4 -12 -10
-9 -5 3 -10 10 -10 16 0 5 5 9 10 9 6 0 10 -7 10 -16z m115 -4 c3 -5 1 -10 -4
-10 -6 0 -11 5 -11 10 0 6 2 10 4 10 3 0 8 -4 11 -10z m92 4 c-3 -3 -12 -4
-19 -1 -8 3 -5 6 6 6 11 1 17 -2 13 -5z m-143 -39 c3 -8 1 -15 -4 -15 -6 0
-10 7 -10 15 0 8 2 15 4 15 2 0 6 -7 10 -15z m55 -11 c6 -15 10 -29 7 -31 -8
-8 -27 8 -21 17 3 5 1 11 -5 15 -12 7 -13 25 -2 25 5 0 14 -12 21 -26z m-99
-29 c0 -8 -4 -15 -9 -15 -5 0 -11 7 -15 15 -3 9 0 15 9 15 8 0 15 -7 15 -15z
m30 5 c0 -5 -2 -10 -4 -10 -3 0 -8 5 -11 10 -3 6 -1 10 4 10 6 0 11 -4 11 -10z
m-79 -33 c-10 -9 -11 -8 -5 6 3 10 9 15 12 12 3 -3 0 -11 -7 -18z m-106 -8
c-4 -5 -1 -9 4 -9 6 0 11 -11 11 -25 0 -21 -5 -25 -31 -25 -20 0 -29 4 -26 13
2 6 12 11 21 9 15 -3 17 2 11 29 -5 22 -4 29 4 25 6 -4 9 -12 6 -17z m-65 -13
c0 -3 -4 -8 -10 -11 -5 -3 -10 -1 -10 4 0 6 5 11 10 11 6 0 10 -2 10 -4z m170
-6 c0 -5 -4 -10 -10 -10 -5 0 -10 5 -10 10 0 6 5 10 10 10 6 0 10 -4 10 -10z
m-200 -35 c0 -8 -4 -15 -10 -15 -5 0 -10 7 -10 15 0 8 5 15 10 15 6 0 10 -7
10 -15z m-30 -25 c0 -5 -5 -10 -11 -10 -5 0 -7 5 -4 10 3 6 8 10 11 10 2 0 4
-4 4 -10z m-75 -50 c3 -5 1 -10 -4 -10 -6 0 -11 5 -11 10 0 6 2 10 4 10 3 0 8
-4 11 -10z m75 -21 c0 -11 -4 -18 -10 -14 -5 3 -7 12 -3 20 7 21 13 19 13 -6z
m-110 -43 c0 -3 -6 -6 -14 -6 -15 0 -28 24 -19 34 6 5 33 -18 33 -28z m-360
-150 c0 -3 -4 -8 -10 -11 -5 -3 -10 -1 -10 4 0 6 5 11 10 11 6 0 10 -2 10 -4z
m-110 -81 c-7 -8 -16 -12 -21 -9 -13 8 -1 24 18 24 13 0 13 -3 3 -15z m-55 -4
c3 -5 1 -12 -5 -16 -5 -3 -10 1 -10 9 0 18 6 21 15 7z m-10 -41 c3 -6 -1 -7
-9 -4 -18 7 -21 14 -7 14 6 0 13 -4 16 -10z m-70 -150 c3 -5 1 -10 -4 -10 -6
0 -11 5 -11 10 0 6 2 10 4 10 3 0 8 -4 11 -10z m-188 -186 c-3 -3 -12 -4 -19
-1 -8 3 -5 6 6 6 11 1 17 -2 13 -5z"/>
<path d="M8146 6304 c-10 -26 -7 -36 9 -31 8 4 17 2 20 -4 8 -13 95 -7 95 6 0
6 9 16 20 23 13 8 20 8 20 1 0 -5 4 -8 9 -4 5 3 13 1 16 -5 5 -8 11 -7 21 1
27 22 14 29 -51 27 -53 -1 -66 -5 -71 -20 -3 -10 -12 -18 -21 -18 -12 0 -13 3
-4 13 6 8 8 17 4 20 -11 12 -21 8 -25 -10 -3 -15 -4 -15 -20 0 -14 15 -17 15
-22 1z m111 -16 c-3 -8 -6 -5 -6 6 -1 11 2 17 5 13 3 -3 4 -12 1 -19z"/>
<path d="M8390 6310 c0 -5 7 -7 15 -4 8 4 15 8 15 10 0 2 -7 4 -15 4 -8 0 -15
-4 -15 -10z"/>
<path d="M8417 6294 c-35 -30 -8 -34 30 -4 15 11 29 17 32 14 3 -4 0 -9 -6
-11 -7 -3 -13 -11 -13 -19 0 -9 5 -12 10 -9 6 3 10 0 10 -8 0 -16 27 -43 35
-35 3 3 2 13 -1 22 -5 14 -9 15 -15 4 -6 -9 -9 -5 -9 14 0 15 5 30 10 33 6 3
10 0 10 -9 0 -8 5 -16 11 -18 6 -2 12 -16 12 -31 0 -26 1 -27 17 -12 14 13 19
13 23 3 3 -7 6 -2 6 11 1 20 -1 22 -14 11 -9 -7 -16 -11 -18 -9 -20 36 -27 51
-27 61 0 8 -15 14 -38 15 -27 1 -45 -5 -65 -23z"/>
<path d="M8542 6296 c4 -29 38 -30 38 -1 0 18 -5 23 -20 22 -15 -1 -20 -7 -18
-21z"/>
<path d="M8600 6298 c0 -24 40 -25 41 0 1 11 4 8 9 -8 6 -22 8 -23 15 -7 4 10
18 17 34 17 20 0 23 2 11 10 -8 6 -36 9 -62 8 -39 -1 -48 -5 -48 -20z"/>
<path d="M8918 6313 c7 -3 16 -2 19 1 4 3 -2 6 -13 5 -11 0 -14 -3 -6 -6z"/>
<path d="M8942 6300 c-15 -24 0 -27 22 -4 19 19 20 24 3 24 -7 0 -18 -9 -25
-20z"/>
<path d="M9000 6299 c9 -16 14 -18 26 -8 19 16 30 4 14 -16 -16 -19 -8 -28 26
-30 22 -1 23 1 9 11 -9 7 -14 18 -10 23 7 12 -17 41 -33 41 -6 0 -13 -6 -15
-12 -4 -10 -6 -10 -6 0 -1 6 -6 12 -11 12 -7 0 -7 -7 0 -21z"/>
<path d="M9115 6310 c6 -9 4 -12 -6 -8 -10 4 -15 -1 -15 -12 0 -10 6 -16 12
-13 18 7 25 31 12 39 -7 5 -8 2 -3 -6z"/>
<path d="M9165 6304 c14 -12 16 -18 7 -21 -10 -4 -10 -8 -1 -19 6 -8 16 -14
21 -14 6 0 6 6 -1 14 -9 10 -9 16 -1 21 8 5 5 11 -7 21 -25 19 -42 17 -18 -2z"/>
<path d="M9444 6305 c8 -8 19 -15 25 -15 17 0 13 17 -5 24 -27 10 -36 7 -20
-9z"/>
<path d="M9810 6304 c0 -8 5 -12 10 -9 6 3 10 10 10 16 0 5 -4 9 -10 9 -5 0
-10 -7 -10 -16z"/>
<path d="M8854 6302 c-17 -11 -13 -41 8 -48 10 -3 18 -10 18 -15 0 -5 8 -9 18
-9 12 0 10 5 -10 18 -34 20 -37 44 -5 39 12 -2 16 -2 10 0 -7 3 -13 9 -13 14
0 11 -11 11 -26 1z"/>
<path d="M9225 6300 c3 -5 11 -10 16 -10 6 0 7 5 4 10 -3 6 -11 10 -16 10 -6
0 -7 -4 -4 -10z"/>
<path d="M9401 6294 c0 -11 3 -14 6 -6 3 7 2 16 -1 19 -3 4 -6 -2 -5 -13z"/>
<path d="M9516 6303 c-11 -11 -6 -23 9 -23 8 0 15 4 15 9 0 13 -16 22 -24 14z"/>
<path d="M9700 6300 c0 -5 5 -10 10 -10 6 0 10 5 10 10 0 6 -4 10 -10 10 -5 0
-10 -4 -10 -10z"/>
<path d="M9906 6285 c4 -8 8 -15 10 -15 2 0 4 7 4 15 0 8 -4 15 -10 15 -5 0
-7 -7 -4 -15z"/>
<path d="M8722 6263 c3 -26 38 -48 38 -24 0 6 -7 11 -16 11 -11 0 -14 6 -9 20
4 12 2 20 -5 20 -6 0 -10 -12 -8 -27z"/>
<path d="M7992 6264 c-7 -8 -10 -14 -7 -14 3 0 -6 -16 -21 -35 -14 -19 -22
-35 -16 -35 6 0 14 9 17 20 6 20 20 26 28 13 2 -5 2 -3 1 4 -2 6 4 14 12 17
15 6 19 32 7 39 -5 3 -14 -1 -21 -9z"/>
<path d="M8320 6266 c0 -9 5 -16 10 -16 6 0 10 4 10 9 0 6 -4 13 -10 16 -5 3
-10 -1 -10 -9z"/>
<path d="M8355 6270 c-3 -5 -1 -10 4 -10 6 0 11 5 11 10 0 6 -2 10 -4 10 -3 0
-8 -4 -11 -10z"/>
<path d="M8690 6270 c0 -5 5 -10 10 -10 6 0 10 5 10 10 0 6 -4 10 -10 10 -5 0
-10 -4 -10 -10z"/>
<path d="M8982 6260 c0 -14 2 -19 5 -12 2 6 2 18 0 25 -3 6 -5 1 -5 -13z"/>
<path d="M8768 6263 c6 -2 18 -2 25 0 6 3 1 5 -13 5 -14 0 -19 -2 -12 -5z"/>
<path d="M8157 6234 c3 -9 9 -12 12 -7 3 4 10 11 15 16 5 4 0 7 -12 7 -15 0
-20 -4 -15 -16z"/>
<path d="M8237 6243 c-4 -3 -7 -11 -7 -17 0 -6 5 -5 12 2 6 6 9 14 7 17 -3 3
-9 2 -12 -2z"/>
<path d="M8632 6220 c0 -14 2 -19 5 -12 2 6 2 18 0 25 -3 6 -5 1 -5 -13z"/>
<path d="M8664 6225 c-10 -8 -14 -15 -8 -15 6 0 17 7 24 15 16 19 9 19 -16 0z"/>
<path d="M8190 6220 c0 -5 7 -10 16 -10 8 0 12 5 9 10 -3 6 -10 10 -16 10 -5
0 -9 -4 -9 -10z"/>
<path d="M8316 6214 c-4 -9 -4 -19 -1 -22 2 -3 7 3 11 12 4 9 4 19 1 22 -2 3
-7 -3 -11 -12z"/>
<path d="M8280 6201 c0 -5 5 -13 10 -16 6 -3 10 -2 10 4 0 5 -4 13 -10 16 -5
3 -10 2 -10 -4z"/>
<path d="M7300 6170 c0 -6 7 -10 15 -10 8 0 15 2 15 4 0 2 -7 6 -15 10 -8 3
-15 1 -15 -4z"/>
<path d="M7890 6169 c0 -5 5 -7 10 -4 6 3 10 1 10 -5 0 -6 5 -8 10 -5 6 4 8
11 5 16 -8 12 -35 11 -35 -2z"/>
<path d="M7990 6154 c0 -8 5 -12 10 -9 6 4 8 11 5 16 -9 14 -15 11 -15 -7z"/>
<path d="M7233 6125 c0 -14 3 -25 8 -25 5 0 9 7 9 15 0 8 0 18 1 22 0 4 -4 9
-9 11 -5 1 -9 -9 -9 -23z"/>
<path d="M8420 6140 c0 -5 5 -10 10 -10 6 0 10 5 10 10 0 6 -4 10 -10 10 -5 0
-10 -4 -10 -10z"/>
<path d="M7190 6099 c0 -5 5 -7 10 -4 6 3 10 8 10 11 0 2 -4 4 -10 4 -5 0 -10
-5 -10 -11z"/>
<path d="M7096 6091 c-3 -5 1 -12 10 -15 22 -8 25 -4 9 11 -8 7 -16 9 -19 4z"/>
<path d="M7043 6072 c-9 -15 -8 -19 2 -19 8 0 16 9 18 19 3 10 2 18 -2 18 -3
0 -11 -8 -18 -18z"/>
<path d="M6493 6064 c-10 -27 11 -49 43 -46 38 5 41 9 18 26 -16 13 -19 13
-22 0 -2 -8 -7 -12 -12 -9 -5 3 -7 12 -4 19 3 8 1 17 -5 21 -6 3 -14 -1 -18
-11z"/>
<path d="M7181 6064 c0 -11 3 -14 6 -6 3 7 2 16 -1 19 -3 4 -6 -2 -5 -13z"/>
<path d="M7786 6067 c3 -10 9 -15 12 -12 3 3 0 11 -7 18 -10 9 -11 8 -5 -6z"/>
<path d="M6650 6039 c0 -6 6 -9 14 -6 8 3 22 0 32 -8 10 -7 25 -10 33 -7 10 4
4 10 -20 18 -44 16 -59 17 -59 3z"/>
<path d="M6325 6030 c3 -5 10 -10 16 -10 5 0 9 5 9 10 0 6 -7 10 -16 10 -8 0
-12 -4 -9 -10z"/>
<path d="M6780 6030 c0 -5 5 -10 10 -10 6 0 10 5 10 10 0 6 -4 10 -10 10 -5 0
-10 -4 -10 -10z"/>
<path d="M6663 6007 c0 -8 6 -14 14 -14 7 0 12 5 10 11 -5 15 -24 18 -24 3z"/>
<path d="M5853 5995 c-9 -25 4 -29 17 -6 7 15 7 21 0 21 -6 0 -13 -7 -17 -15z"/>
<path d="M6538 6001 c-17 -6 -16 -7 2 -18 20 -13 34 -5 22 14 -4 5 -15 7 -24
4z"/>
<path d="M6641 5994 c0 -11 3 -14 6 -6 3 7 2 16 -1 19 -3 4 -6 -2 -5 -13z"/>
<path d="M6271 5984 c0 -11 3 -14 6 -6 3 7 2 16 -1 19 -3 4 -6 -2 -5 -13z"/>
<path d="M6310 5978 c0 -17 2 -18 15 -4 8 8 15 16 15 19 0 2 -7 4 -15 4 -8 0
-15 -9 -15 -19z"/>
<path d="M5955 5969 c-4 -6 -5 -13 -2 -16 7 -7 27 6 27 18 0 12 -17 12 -25 -2z"/>
<path d="M5997 5959 c7 -7 15 -10 18 -7 3 3 -2 9 -12 12 -14 6 -15 5 -6 -5z"/>
<path d="M6360 5966 c0 -2 9 -6 20 -9 11 -3 20 -1 20 4 0 5 -9 9 -20 9 -11 0
-20 -2 -20 -4z"/>
<path d="M5690 5935 c0 -18 19 -40 26 -32 4 4 0 15 -9 24 -9 10 -17 13 -17 8z"/>
<path d="M5980 5926 c0 -2 7 -7 16 -10 8 -3 12 -2 9 4 -6 10 -25 14 -25 6z"/>
<path d="M5740 5900 c0 -19 3 -21 12 -12 9 9 9 15 0 24 -9 9 -12 7 -12 -12z"/>
<path d="M5635 5881 c-7 -19 4 -29 14 -12 5 7 14 10 20 7 6 -4 11 -1 11 6 0
18 -38 18 -45 -1z"/>
<path d="M5534 5874 c-4 -10 -9 -22 -11 -26 -2 -5 0 -8 5 -8 10 0 24 41 17 48
-3 3 -8 -4 -11 -14z"/>
<path d="M5565 5881 c-3 -5 -1 -12 5 -16 5 -3 10 1 10 9 0 18 -6 21 -15 7z"/>
<path d="M5591 5854 c0 -11 3 -14 6 -6 3 7 2 16 -1 19 -3 4 -6 -2 -5 -13z"/>
<path d="M5440 5825 c-7 -9 -8 -15 -2 -15 5 0 12 7 16 15 3 8 4 15 2 15 -2 0
-9 -7 -16 -15z"/>
<path d="M5332 5791 c-7 -18 -7 -31 -2 -31 11 0 25 48 17 56 -2 3 -9 -9 -15
-25z"/>
<path d="M5140 5800 c0 -5 5 -10 11 -10 5 0 7 5 4 10 -3 6 -8 10 -11 10 -2 0
-4 -4 -4 -10z"/>
<path d="M5225 5770 c-3 -5 -1 -10 4 -10 6 0 11 5 11 10 0 6 -2 10 -4 10 -3 0
-8 -4 -11 -10z"/>
<path d="M5017 5753 c-4 -3 -7 -22 -6 -42 l1 -36 9 39 c9 39 8 52 -4 39z"/>
<path d="M4910 5707 c0 -21 12 -28 27 -16 19 16 16 29 -7 29 -11 0 -20 -6 -20
-13z"/>
<path d="M5032 5646 c7 -8 15 -12 17 -11 5 6 -10 25 -20 25 -5 0 -4 -6 3 -14z"/>
<path d="M4660 5640 c0 -5 5 -10 11 -10 5 0 7 5 4 10 -3 6 -8 10 -11 10 -2 0
-4 -4 -4 -10z"/>
<path d="M4781 5624 c0 -11 3 -14 6 -6 3 7 2 16 -1 19 -3 4 -6 -2 -5 -13z"/>
<path d="M4695 5611 c-3 -6 -12 -8 -20 -4 -8 3 -15 0 -15 -6 0 -12 16 -13 44
-2 13 5 16 10 9 14 -7 4 -14 3 -18 -2z"/>
<path d="M4805 5610 c-3 -5 1 -10 10 -10 9 0 13 5 10 10 -3 6 -8 10 -10 10 -2
0 -7 -4 -10 -10z"/>
<path d="M4517 5589 c-4 -16 -2 -17 14 -8 23 12 23 15 5 22 -8 3 -16 -2 -19
-14z"/>
<path d="M4596 5586 c10 -8 21 -12 24 -10 5 6 -21 24 -34 24 -6 0 -1 -6 10
-14z"/>
<path d="M4560 5578 c0 -9 -6 -18 -12 -21 -10 -3 -10 -7 -1 -17 9 -10 13 -7
19 14 3 15 4 30 0 33 -3 4 -6 -1 -6 -9z"/>
<path d="M4460 5552 c0 -16 -5 -22 -16 -20 -10 2 -19 -3 -21 -9 -3 -8 5 -13
20 -13 29 0 47 34 28 53 -8 8 -11 5 -11 -11z"/>
<path d="M4510 5515 c7 -9 15 -13 17 -11 7 7 -7 26 -19 26 -6 0 -6 -6 2 -15z"/>
<path d="M4315 5510 c3 -5 13 -10 21 -10 8 0 12 5 9 10 -3 6 -13 10 -21 10 -8
0 -12 -4 -9 -10z"/>
<path d="M4218 5465 c-3 -14 -1 -25 3 -25 5 0 9 11 9 25 0 14 -2 25 -4 25 -2
0 -6 -11 -8 -25z"/>
<path d="M4305 5480 c-3 -5 -1 -10 4 -10 6 0 11 5 11 10 0 6 -2 10 -4 10 -3 0
-8 -4 -11 -10z"/>
<path d="M4245 5460 c3 -5 8 -10 11 -10 2 0 4 5 4 10 0 6 -5 10 -11 10 -5 0
-7 -4 -4 -10z"/>
<path d="M4395 5450 c3 -5 10 -10 16 -10 5 0 9 5 9 10 0 6 -7 10 -16 10 -8 0
-12 -4 -9 -10z"/>
<path d="M4180 5410 c0 -5 5 -10 10 -10 6 0 10 5 10 10 0 6 -4 10 -10 10 -5 0
-10 -4 -10 -10z"/>
<path d="M4092 5390 c0 -14 2 -19 5 -12 2 6 2 18 0 25 -3 6 -5 1 -5 -13z"/>
<path d="M3921 5355 c1 -40 1 -40 10 -10 5 18 5 33 -1 39 -7 7 -10 -4 -9 -29z"/>
<path d="M3730 5343 c0 -23 17 -49 26 -41 9 10 -4 58 -16 58 -6 0 -10 -8 -10
-17z"/>
<path d="M3778 5352 c-14 -6 -14 -10 -3 -25 12 -16 13 -16 17 8 3 14 5 25 4
24 0 0 -9 -3 -18 -7z"/>
<path d="M3878 5353 c7 -3 16 -2 19 1 4 3 -2 6 -13 5 -11 0 -14 -3 -6 -6z"/>
<path d="M3830 5339 c0 -5 5 -7 10 -4 6 3 10 8 10 11 0 2 -4 4 -10 4 -5 0 -10
-5 -10 -11z"/>
<path d="M4018 5343 c6 -2 18 -2 25 0 6 3 1 5 -13 5 -14 0 -19 -2 -12 -5z"/>
<path d="M7333 5304 c-16 -17 -18 -24 -8 -24 8 0 12 -6 9 -14 -3 -8 -1 -17 5
-21 6 -3 11 2 12 12 0 10 2 30 4 46 2 15 3 27 2 26 -1 -1 -12 -12 -24 -25z"/>
<path d="M3710 5275 c0 -14 4 -25 9 -25 4 0 6 11 3 25 -2 14 -6 25 -8 25 -2 0
-4 -11 -4 -25z"/>
<path d="M3735 5210 c3 -5 8 -10 11 -10 2 0 4 5 4 10 0 6 -5 10 -11 10 -5 0
-7 -4 -4 -10z"/>
<path d="M3111 5167 c-13 -13 -14 -37 -2 -37 5 0 11 4 13 8 2 5 14 5 28 1 23
-6 23 -7 3 -8 -17 -1 -20 -5 -15 -23 3 -12 7 -17 10 -10 5 17 22 15 22 -3 0
-10 9 -14 24 -13 26 2 26 18 0 18 -8 0 -14 9 -14 20 0 17 5 19 24 14 14 -3 33
-1 43 6 15 9 13 11 -14 7 -18 -2 -34 0 -35 5 -5 15 -75 27 -87 15z"/>
<path d="M3450 5170 c0 -5 5 -10 10 -10 6 0 10 5 10 10 0 6 -4 10 -10 10 -5 0
-10 -4 -10 -10z"/>
<path d="M7345 5130 c-3 -5 -1 -10 4 -10 6 0 11 5 11 10 0 6 -2 10 -4 10 -3 0
-8 -4 -11 -10z"/>
<path d="M3114 5106 c4 -10 2 -24 -3 -30 -6 -7 -4 -16 4 -23 9 -8 16 -9 20 -3
3 6 1 10 -5 10 -6 0 -9 8 -6 18 3 9 1 24 -5 32 -9 12 -10 12 -5 -4z"/>
<path d="M3281 5104 c0 -11 3 -14 6 -6 3 7 2 16 -1 19 -3 4 -6 -2 -5 -13z"/>
<path d="M3355 5070 c3 -5 11 -10 16 -10 6 0 7 5 4 10 -3 6 -11 10 -16 10 -6
0 -7 -4 -4 -10z"/>
<path d="M3150 5054 c0 -8 5 -12 10 -9 6 4 8 11 5 16 -9 14 -15 11 -15 -7z"/>
<path d="M2962 5048 c2 -6 10 -13 16 -14 7 -1 8 0 2 3 -5 2 -8 9 -4 14 3 5 0
9 -6 9 -7 0 -10 -5 -8 -12z"/>
<path d="M2930 5042 c0 -12 19 -26 26 -19 2 2 -2 10 -11 17 -9 8 -15 8 -15 2z"/>
<path d="M7434 5032 c8 -23 3 -27 -41 -37 -27 -5 -37 -2 -57 20 -15 16 -27 22
-31 15 -3 -6 -21 -17 -38 -25 -36 -16 -144 -111 -136 -119 2 -3 31 8 63 24 65
33 101 29 42 -4 -36 -21 -37 -22 -35 -78 l2 -57 -66 -71 c-37 -39 -67 -76 -67
-84 0 -28 -59 -93 -99 -109 -57 -23 -83 -47 -69 -64 6 -7 19 -13 29 -13 16 0
19 -8 19 -50 0 -27 0 -53 0 -57 1 -7 -47 -16 -122 -25 -10 -1 -18 -5 -18 -8 0
-10 -70 -41 -79 -35 -5 2 -16 -4 -26 -15 -10 -11 -24 -20 -32 -20 -17 0 -17
-77 1 -109 7 -13 49 -60 93 -105 63 -64 92 -104 136 -188 32 -58 57 -116 57
-129 0 -12 6 -27 14 -33 11 -9 16 -132 25 -676 15 -891 15 -873 -6 -861 -10 6
-30 12 -45 15 -19 4 -26 11 -22 21 4 8 1 15 -5 15 -6 0 -11 -10 -11 -21 0 -18
-2 -19 -15 -9 -8 7 -13 16 -10 19 2 4 -2 8 -10 8 -8 0 -16 -6 -19 -13 -3 -7
-14 -18 -26 -24 -20 -11 -21 -10 -10 9 6 12 9 21 8 22 -29 8 -38 5 -38 -12 0
-10 -5 -19 -11 -19 -6 0 -9 7 -6 15 4 8 2 17 -4 20 -5 4 -12 -1 -15 -9 -3 -9
-10 -14 -14 -11 -5 3 -13 -3 -19 -12 -9 -16 -10 -16 -11 -2 0 24 -46 33 -73
14 -28 -19 -43 -19 -27 0 18 22 -8 20 -33 -2 -18 -17 -19 -17 -32 1 -13 17
-15 17 -30 2 -20 -19 -32 -20 -38 -3 -4 7 -8 3 -13 -11 -6 -21 -7 -21 -20 -5
-10 14 -15 16 -25 6 -7 -7 -37 -13 -67 -13 -44 0 -53 3 -48 15 3 8 1 15 -4 15
-6 0 -10 -10 -10 -22 0 -12 -3 -18 -7 -15 -3 4 -13 1 -21 -6 -13 -10 -14 -8
-7 12 6 18 4 22 -6 15 -8 -5 -24 -7 -35 -6 -12 2 -24 -4 -27 -12 -4 -9 -11
-16 -17 -16 -6 0 -3 11 6 25 15 24 12 52 -4 30 -8 -11 -181 -13 -198 -3 -5 4
-16 3 -24 -2 -9 -5 -19 -5 -26 1 -8 6 -14 6 -18 1 -4 -6 -21 -7 -42 -2 -20 5
-43 6 -51 3 -8 -3 -19 0 -24 8 -8 12 -11 12 -19 -1 -8 -13 -10 -13 -10 1 0 9
-7 19 -14 22 -10 4 -13 1 -10 -7 3 -8 1 -17 -5 -21 -6 -3 -14 1 -17 9 -3 9
-10 16 -16 16 -5 0 -7 -4 -4 -9 7 -11 -24 -24 -33 -15 -3 4 0 9 7 11 6 3 12 9
12 14 0 12 -46 12 -69 -1 -10 -5 -49 -10 -87 -11 -38 -2 -75 -7 -83 -13 -12
-9 -13 -8 -7 3 7 11 -6 12 -75 8 -52 -4 -88 -2 -96 5 -9 7 -13 7 -13 -2 0 -8
-8 -10 -22 -7 -12 4 -29 1 -37 -6 -12 -10 -13 -9 -7 2 7 10 2 12 -24 6 -22 -5
-35 -3 -40 6 -7 10 -11 10 -24 0 -9 -8 -16 -11 -16 -8 0 3 -14 2 -30 -3 -19
-5 -28 -5 -25 1 7 10 -10 19 -47 23 -13 1 -29 5 -35 9 -6 4 -15 2 -19 -4 -5
-9 -11 -7 -20 5 -13 18 -54 14 -54 -5 0 -5 -7 -9 -16 -9 -10 0 -14 6 -10 15 6
17 -9 20 -20 4 -5 -8 -10 -6 -16 5 -11 19 -39 21 -56 4 -7 -7 -12 -9 -12 -5 0
4 -10 2 -22 -5 -25 -13 -58 -18 -58 -9 0 3 -11 7 -25 7 -14 1 -25 -2 -25 -6 0
-5 -16 -8 -35 -7 -21 1 -35 7 -35 15 0 7 -6 19 -13 26 -10 11 -15 10 -26 -1
-7 -8 -20 -12 -28 -9 -10 4 -17 -1 -20 -15 -4 -15 -8 -17 -14 -8 -8 14 -38 21
-52 12 -5 -3 -3 -9 4 -14 11 -7 11 -9 -2 -9 -9 0 -19 6 -22 14 -5 12 -20 14
-74 10 -100 -8 -136 -6 -161 10 -6 4 -21 2 -33 -4 -15 -8 -29 -8 -51 -1 -39
14 -51 14 -43 1 6 -10 -30 -14 -117 -12 -39 1 -48 -2 -48 -16 0 -13 -7 -9 -27
13 -22 23 -29 26 -31 13 -2 -13 -9 -15 -32 -8 -17 5 -32 4 -39 -3 -7 -7 -18
-7 -36 1 -31 14 -46 15 -25 2 13 -9 13 -10 0 -10 -9 0 -20 4 -26 10 -6 6 -19
5 -36 -4 -15 -8 -28 -10 -30 -6 -2 5 -25 10 -53 12 -27 2 -53 8 -57 13 -5 6
-12 4 -18 -5 -9 -13 -10 -13 -10 0 0 12 -2 12 -9 2 -7 -12 -12 -12 -30 -1 -11
8 -21 17 -21 21 0 5 -4 8 -10 8 -5 0 -10 -9 -10 -20 0 -14 7 -20 24 -20 16 0
26 -7 29 -21 5 -19 4 -20 -12 -5 -10 9 -27 16 -40 16 -12 0 -24 7 -28 16 -4
10 -13 14 -29 10 -13 -4 -24 -1 -27 7 -4 9 -8 8 -17 -3 -9 -11 -13 -12 -17 -2
-2 6 -10 9 -16 5 -7 -5 -30 -9 -52 -9 -22 -1 -57 -5 -77 -9 -34 -7 -36 -6 -31
14 5 21 -12 31 -19 10 -3 -8 -14 -8 -41 -1 -31 9 -38 8 -46 -6 -9 -15 -11 -15
-29 2 -20 17 -20 17 -15 -3 4 -14 1 -21 -10 -21 -16 0 -32 27 -28 49 2 9 -3
12 -15 7 -10 -4 -21 -1 -26 6 -6 10 -8 9 -8 -4 0 -9 5 -20 10 -23 6 -3 10 -12
10 -18 0 -7 -5 -4 -11 6 -13 21 -51 24 -43 2 4 -8 2 -15 -4 -15 -5 0 -12 7
-16 15 -3 8 -1 15 4 15 6 0 10 7 10 15 0 18 -16 20 -23 3 -4 -10 -6 -9 -6 1
-1 10 -4 11 -15 2 -9 -8 -21 -8 -45 0 -27 10 -34 9 -45 -6 -9 -13 -15 -15 -20
-7 -4 7 -18 12 -32 12 -14 0 -23 -4 -20 -9 4 -5 -3 -7 -14 -4 -11 3 -18 8 -16
12 4 6 -86 7 -109 1 -30 -8 -57 2 -62 21 -6 21 -7 21 -20 4 -10 -14 -16 -16
-25 -7 -8 8 -5 14 15 23 20 9 23 14 14 24 -10 10 -13 9 -19 -6 -6 -16 -12 -17
-34 -9 -15 6 -30 8 -33 4 -3 -4 0 -9 7 -11 6 -3 10 -9 7 -13 -7 -11 -95 19
-95 32 0 5 5 6 10 3 6 -4 10 11 9 37 0 24 -3 36 -7 28 -9 -20 -72 -26 -72 -8
0 8 -7 23 -16 34 -15 18 -15 18 -5 -3 16 -32 13 -47 -5 -28 -9 9 -22 14 -29
11 -9 -3 -12 3 -10 20 1 15 -2 23 -9 21 -6 -2 -10 -12 -10 -21 1 -9 -3 -15
-10 -13 -6 2 -11 14 -10 26 1 23 -11 28 -19 8 -3 -9 -18 -13 -38 -12 -34 2
-51 -8 -62 -35 -3 -9 -6 -4 -6 13 -1 35 -16 35 -32 -2 l-13 -29 -13 24 c-6 14
-9 32 -6 41 5 12 2 15 -10 10 -8 -3 -18 -1 -21 6 -2 7 -5 4 -5 -5 -1 -11 -6
-15 -16 -11 -9 3 -22 -2 -31 -13 -14 -18 -14 -18 -12 1 3 16 -5 21 -47 29 -27
5 -53 14 -57 20 -5 8 -8 7 -8 -2 0 -7 -5 -10 -11 -6 -6 3 -24 -3 -40 -15 -15
-12 -26 -15 -23 -8 3 9 -7 13 -38 12 -33 0 -42 -4 -40 -15 1 -8 -6 -4 -17 10
-17 21 -21 22 -37 10 -16 -14 -17 -13 -11 4 6 15 4 17 -17 12 -18 -4 -28 -1
-35 11 -9 16 -10 15 -11 -8 0 -35 -30 -35 -30 0 0 18 -3 22 -9 12 -5 -8 -18
-11 -32 -7 -13 3 -18 3 -11 0 6 -3 12 -10 12 -16 0 -12 -42 1 -52 16 -5 8 -13
8 -28 -2 -11 -6 -26 -12 -34 -12 -8 0 -16 -5 -18 -12 -3 -7 -7 -5 -11 6 -4 10
-3 15 3 11 6 -3 10 -2 10 3 0 13 -25 22 -60 22 -22 0 -31 -6 -38 -27 l-10 -28
-1 27 c-1 22 -5 26 -26 24 -14 -1 -28 -6 -32 -9 -9 -9 -23 -9 -22 1 1 4 1 14
0 22 -1 12 -3 13 -10 1 -6 -10 -13 -11 -29 -2 -11 6 -34 11 -51 11 -16 0 -32
6 -34 13 -4 7 -8 3 -13 -11 -5 -17 -10 -20 -19 -12 -7 6 -11 18 -8 28 3 13 -3
17 -25 17 -19 0 -28 -4 -25 -12 4 -10 -4 -11 -28 -6 -19 4 -43 7 -54 7 -11 1
-23 6 -28 13 -8 13 -67 -2 -67 -18 0 -5 -4 -9 -10 -9 -5 0 -10 7 -10 15 0 17
-26 21 -32 4 -2 -5 -11 -7 -22 -3 -10 4 -13 10 -8 13 6 3 -20 7 -56 9 -44 1
-68 -2 -74 -10 -5 -9 -8 -4 -8 13 l0 27 -79 -3 c-65 -3 -79 -1 -75 10 4 10 0
12 -17 8 -14 -4 -26 0 -35 11 -7 11 -20 16 -31 12 -10 -3 -24 -2 -32 3 -19 12
21 51 54 51 31 0 33 20 3 21 -13 1 -26 1 -29 1 -4 -1 -5 7 -2 17 3 10 0 22 -6
25 -6 4 -11 2 -11 -4 0 -6 -4 -9 -10 -5 -5 3 -7 12 -3 20 4 11 -2 15 -21 15
-24 0 -26 -3 -26 -41 0 -38 1 -40 18 -28 16 13 16 13 -1 -7 -16 -19 -17 -99
-17 -1362 l0 -1342 4985 0 4985 0 0 901 0 902 -32 -7 c-18 -3 -38 -13 -44 -21
-6 -8 -23 -15 -37 -15 -15 0 -45 -9 -67 -21 -22 -12 -61 -22 -88 -23 -41 -1
-47 -4 -50 -24 -3 -17 -8 -21 -26 -16 -18 4 -25 1 -29 -15 -3 -12 -13 -24 -24
-27 -10 -3 -27 -10 -38 -16 -11 -6 -17 -7 -13 -3 10 10 -22 34 -44 35 -10 0
-18 5 -18 11 0 5 -5 7 -11 4 -18 -12 -99 5 -99 20 0 19 -30 27 -47 13 -8 -6
-35 -13 -59 -14 -40 -3 -44 -1 -50 22 -7 28 -42 46 -92 46 -25 0 -33 5 -38 23
-4 15 -16 26 -33 30 -40 9 -93 2 -98 -12 -4 -10 -12 -9 -39 2 -19 8 -35 14
-37 14 -1 0 -14 4 -30 10 -43 17 -119 6 -139 -20 -10 -12 -18 -27 -18 -34 0
-14 -35 -10 -56 6 -6 5 -25 7 -42 5 -17 -2 -36 1 -44 5 -10 7 -10 9 0 9 6 0
12 4 12 9 0 5 -8 7 -19 4 -12 -3 -20 2 -24 16 -6 24 -45 29 -65 9 -9 -9 -20
-9 -46 0 -19 7 -50 13 -70 14 -20 1 -39 5 -42 10 -3 4 -16 8 -30 8 -13 0 -24
5 -24 10 0 6 6 10 13 10 8 0 7 4 -3 10 -12 8 -10 10 10 11 14 1 28 1 33 0 4 0
7 3 7 9 0 5 5 10 10 10 7 0 7 -7 -1 -21 -8 -16 -8 -24 1 -33 8 -8 10 -7 5 5
-4 10 -2 20 4 24 6 3 11 -2 12 -12 1 -12 3 -10 8 7 5 14 4 33 -1 43 -6 12 -5
17 4 15 7 -2 15 -6 18 -9 3 -4 15 -9 26 -13 23 -7 39 15 28 37 -3 7 2 3 10 -7
16 -20 16 -20 16 1 0 15 6 21 25 21 14 0 25 -5 25 -10 0 -5 4 -7 10 -3 5 3 6
13 3 23 -7 16 -5 16 18 1 22 -15 28 -15 54 -1 22 11 36 12 57 4 19 -7 30 -7
34 0 4 7 10 4 16 -6 11 -20 32 -21 24 -1 -8 21 20 19 34 -3 8 -12 10 -12 7 -2
-3 10 2 16 13 16 10 0 17 -3 14 -7 -6 -11 50 -5 59 6 5 7 9 7 15 0 8 -12 27
-13 38 -2 4 4 18 0 31 -8 13 -9 23 -11 23 -5 0 18 20 11 21 -7 0 -15 2 -15 8
2 l8 20 5 -20 c5 -16 6 -17 7 -2 1 19 26 23 36 7 4 -6 20 -9 36 -6 16 2 29 1
29 -4 0 -4 13 -7 30 -6 16 1 32 -3 34 -8 3 -7 9 -5 15 4 6 8 11 11 11 5 0 -6
79 -10 215 -11 131 0 212 3 208 9 -3 5 3 7 13 4 29 -9 135 -20 169 -18 17 1
69 2 118 2 l87 -1 0 75 c0 53 -4 75 -12 76 -7 1 -22 3 -33 5 -11 2 -65 6 -120
10 -55 4 -106 11 -112 17 -9 6 -13 5 -13 -4 0 -10 -3 -10 -12 -1 -7 7 -12 31
-13 54 -1 38 -4 43 -23 40 -12 -2 -22 2 -22 7 0 6 -9 11 -20 11 -12 0 -31 6
-43 14 -12 8 -46 16 -75 18 -41 4 -55 2 -62 -11 -9 -14 -11 -14 -20 -1 -5 8
-11 18 -12 23 -2 4 -19 2 -38 -3 -19 -6 -82 -12 -140 -15 -143 -5 -252 -16
-271 -26 -8 -4 -45 -9 -82 -10 -36 -1 -94 -9 -129 -16 -145 -33 -213 -36 -244
-12 -6 5 -32 5 -60 0 -33 -6 -51 -6 -55 1 -9 14 -55 2 -90 -23 -30 -21 -44
-25 -34 -9 3 6 1 10 -4 10 -6 0 -11 -7 -11 -15 0 -12 -4 -13 -19 -5 -25 13
-44 13 -36 0 8 -13 -28 0 -37 14 -4 6 -16 6 -34 -3 -22 -10 -29 -10 -35 1 -7
10 -9 10 -9 0 0 -15 -21 -11 -38 8 -12 13 -13 13 -9 -1 4 -12 -1 -14 -27 -11
-17 3 -36 9 -43 14 -7 6 -15 3 -23 -9 -10 -16 -11 -16 -6 -1 3 10 1 20 -4 23
-6 4 -10 1 -10 -5 0 -7 -8 -9 -20 -5 -18 6 -20 2 -21 -37 -6 -198 -35 581 -51
1389 -2 86 1 126 10 135 6 6 12 22 12 34 0 12 33 91 74 175 64 134 82 162 135
214 34 33 61 67 61 77 0 9 4 19 9 22 8 6 6 53 -4 83 -2 7 -11 10 -20 7 -10 -4
-15 0 -15 10 0 9 -4 16 -10 16 -5 0 -10 -4 -10 -10 0 -5 -11 -10 -25 -10 -14
0 -25 5 -25 10 0 6 -5 10 -11 10 -7 0 -9 -12 -5 -34 4 -19 2 -37 -3 -40 -6 -4
-11 13 -13 41 -2 37 -7 48 -20 48 -10 0 -24 9 -32 20 -15 20 -15 20 -16 0 0
-18 -2 -18 -20 5 l-20 25 -6 -23 c-5 -16 -13 -22 -28 -20 -17 2 -22 11 -24 50
-3 44 -1 48 27 63 39 19 39 25 0 50 -17 11 -35 30 -40 43 -4 12 -14 22 -20 22
-8 0 -8 -4 1 -15 23 -28 -54 -19 -89 11 -45 38 -43 94 4 84 5 -1 -15 25 -46
57 -104 111 -99 102 -99 164 0 58 12 75 44 63 8 -3 17 -1 20 5 7 11 -42 49
-123 98 -41 24 -43 24 -37 5z m-160 -137 c-7 -16 -24 -21 -24 -6 0 8 7 13 27
20 1 1 0 -6 -3 -14z m85 -64 c-15 -5 -22 6 -14 19 6 9 10 9 16 -1 5 -8 4 -15
-2 -18z m28 7 c-3 -8 -6 -5 -6 6 -1 11 2 17 5 13 3 -3 4 -12 1 -19z m-87 -218
c39 -39 2 -64 -112 -75 -108 -10 -133 8 -80 57 35 33 45 36 115 37 44 1 61 -3
77 -19z m285 -4 c29 -19 27 -45 -2 -52 -25 -7 -154 3 -179 13 -17 6 -18 29 -2
39 41 26 144 26 183 0z m-275 -147 c0 -5 -13 -9 -30 -9 -34 0 -34 -1 -19 37
l11 28 19 -24 c10 -13 19 -27 19 -32z m220 27 c0 -28 -11 -39 -34 -30 -12 5
-13 10 -4 30 15 31 38 31 38 0z m-382 -8 c18 -18 14 -36 -9 -43 -27 -9 -39 4
-28 33 9 25 19 28 37 10z m548 -13 c-1 -28 -26 -35 -26 -7 0 10 3 22 7 25 13
14 21 6 19 -18z m79 -17 c-12 -37 -24 -43 -34 -17 -11 29 -6 39 20 39 16 0 19
-4 14 -22z m-795 -3 c0 -8 -4 -15 -10 -15 -5 0 -10 7 -10 15 0 8 5 15 10 15 6
0 10 -7 10 -15z m16 -32 c-10 -10 -19 5 -10 18 6 11 8 11 12 0 2 -7 1 -15 -2
-18z m124 -95 c0 -18 -2 -20 -9 -8 -6 8 -7 18 -5 22 9 14 14 9 14 -14z m723
-29 c7 -27 -1 -49 -19 -49 -9 0 -14 12 -14 35 0 39 24 49 33 14z m47 11 c0 -5
-5 -10 -11 -10 -5 0 -7 5 -4 10 3 6 8 10 11 10 2 0 4 -4 4 -10z m-938 -40 c4
-28 3 -30 -29 -30 -30 0 -33 3 -33 30 0 26 3 30 29 30 24 0 29 -5 33 -30z
m-82 -10 c0 -16 -4 -30 -10 -30 -5 0 -10 14 -10 30 0 17 5 30 10 30 6 0 10
-13 10 -30z m1170 9 c0 -7 -25 -19 -41 -19 -5 0 -9 7 -9 15 0 10 9 14 25 13
14 -1 25 -5 25 -9z m-1211 -26 c0 -25 -1 -26 -9 -8 -12 27 -12 35 0 35 6 0 10
-12 9 -27z m1261 -3 c0 -20 -5 -30 -15 -30 -18 0 -20 31 -3 48 17 17 18 16 18
-18z m-50 -10 c0 -5 -7 -10 -16 -10 -8 0 -12 5 -9 10 3 6 10 10 16 10 5 0 9
-4 9 -10z m-1343 -52 c2 -17 0 -19 -7 -8 -5 8 -6 18 -4 22 8 12 10 10 11 -14z
m1320 -76 c-15 -14 -27 -22 -27 -16 0 14 41 57 48 49 3 -3 -6 -18 -21 -33z
m-37 3 c0 -17 -43 -84 -70 -110 l-32 -30 8 30 c13 58 33 95 56 105 27 10 38
12 38 5z m-1192 -61 c13 -26 21 -48 19 -50 -2 -2 -25 19 -52 46 l-49 50 30 0
c26 0 33 -6 52 -46z m46 34 c3 -14 40 -121 51 -153 7 -18 6 -18 -8 -5 -18 17
-87 144 -87 160 0 14 40 13 44 -2z m1056 -7 c0 -16 -78 -178 -89 -185 -8 -5
-11 13 -11 57 0 63 1 66 40 101 39 35 60 45 60 27z m-240 -15 c0 -8 -4 -18
-10 -21 -5 -3 -10 3 -10 14 0 12 5 21 10 21 6 0 10 -6 10 -14z m81 -23 c-9
-16 -10 -14 -11 12 0 21 3 26 11 18 8 -8 8 -16 0 -30z m89 28 c0 -5 -7 -14
-15 -21 -13 -10 -15 -9 -15 9 0 12 6 21 15 21 8 0 15 -4 15 -9z m-225 -100
c-6 -12 -12 -6 -25 24 -24 52 -24 54 3 64 20 8 22 5 25 -31 2 -22 0 -48 -3
-57z m-667 -14 c29 -56 52 -109 52 -117 -2 -32 -66 61 -88 127 -13 37 -26 74
-29 81 -2 6 -1 12 4 12 4 0 32 -46 61 -103z m46 87 c3 -9 6 -46 6 -82 l-1 -67
-39 75 c-21 41 -39 78 -40 83 -1 15 68 7 74 -9z m136 -10 c0 -14 -4 -23 -10
-19 -5 3 -10 15 -10 26 0 10 5 19 10 19 6 0 10 -12 10 -26z m26 -52 c-12 -12
-18 8 -10 35 l8 28 4 -28 c2 -16 1 -31 -2 -35z m520 3 c-8 -51 -26 -61 -26
-14 0 32 18 75 27 65 3 -3 2 -26 -1 -51z m-609 3 c-3 -7 -5 -2 -5 12 0 14 2
19 5 13 2 -7 2 -19 0 -25z m694 9 c-10 -9 -11 -8 -5 6 3 10 9 15 12 12 3 -3 0
-11 -7 -18z m-729 -120 c-9 -28 -10 -23 -10 43 0 72 1 73 11 32 7 -29 7 -52
-1 -75z m665 76 c-3 -10 -5 -4 -5 12 0 17 2 24 5 18 2 -7 2 -21 0 -30z m90
-10 c-4 -17 -4 -17 -12 0 -4 9 -4 25 0 35 8 16 8 16 12 0 3 -10 3 -26 0 -35z
m109 -54 c-50 -103 -57 -106 -25 -8 18 56 56 116 66 105 2 -1 -17 -45 -41 -97z
m-751 71 c3 -5 1 -10 -4 -10 -6 0 -11 5 -11 10 0 6 2 10 4 10 3 0 8 -4 11 -10z
m-66 -83 c1 -16 -3 -26 -9 -22 -5 3 -10 25 -9 48 0 33 2 38 9 22 5 -11 9 -33
9 -48z m43 -11 c-9 -15 -22 22 -15 41 6 16 8 15 13 -7 4 -14 5 -29 2 -34z
m668 18 c0 -14 -4 -23 -10 -19 -5 3 -10 15 -10 26 0 10 5 19 10 19 6 0 10 -12
10 -26z m48 -56 c-21 -69 -23 -71 -26 -36 -2 23 5 52 18 78 31 61 35 43 8 -42z
m-904 36 c3 -8 2 -12 -4 -9 -6 3 -10 10 -10 16 0 14 7 11 14 -7z m689 2 c5
-14 -10 -36 -25 -36 -4 0 -8 11 -8 25 0 27 24 35 33 11z m76 7 c0 -5 -7 -24
-14 -43 l-13 -35 -1 36 c-1 20 2 39 6 42 9 9 23 9 22 0z m41 -51 c-7 -13 -9
-8 -9 23 0 35 1 37 10 17 6 -15 5 -30 -1 -40z m-680 -3 c0 -10 -4 -19 -10 -19
-5 0 -10 12 -10 26 0 14 4 23 10 19 6 -3 10 -15 10 -26z m-71 -3 c7 -8 11 -29
9 -46 -3 -31 -3 -31 -19 14 -16 46 -12 59 10 32z m641 -8 c0 -16 -3 -19 -11
-11 -6 6 -8 16 -5 22 11 17 16 13 16 -11z m66 -35 c-10 -26 -18 -8 -9 23 5 21
8 24 11 11 2 -10 1 -25 -2 -34z m65 -19 c-15 -34 -20 -28 -14 14 4 23 9 30 16
23 7 -7 7 -18 -2 -37z m-156 -6 l7 -28 -80 0 c-45 0 -84 4 -87 10 -3 5 -1 19
6 31 10 20 17 21 70 15 42 -4 59 -2 59 6 0 20 18 -5 25 -34z m23 7 c-3 -3 -9
2 -12 12 -6 14 -5 15 5 6 7 -7 10 -15 7 -18z m-268 -21 c0 -8 -7 -14 -15 -14
-8 0 -15 9 -15 20 0 13 5 18 15 14 8 -4 15 -12 15 -20z m350 6 c0 -5 -4 -10
-10 -10 -5 0 -10 5 -10 10 0 6 5 10 10 10 6 0 10 -4 10 -10z m-650 -25 c0 -14
-4 -25 -10 -25 -11 0 -14 33 -3 43 11 11 13 8 13 -18z m730 -1 c0 -8 -7 -14
-15 -14 -15 0 -21 21 -9 33 10 9 24 -2 24 -19z m-206 -36 c13 -48 6 -156 -10
-173 -27 -27 -74 -48 -75 -33 0 7 -4 3 -9 -8 -9 -23 -41 -36 -60 -24 -12 7
-26 220 -16 246 4 10 26 14 85 14 73 0 79 -2 85 -22z m-198 -8 c11 0 14 -22
14 -110 0 -102 -1 -110 -19 -110 -11 0 -23 5 -26 10 -13 20 -25 -2 -25 -46 0
-46 -7 -53 -29 -31 -7 6 -4 -6 7 -29 19 -37 19 -43 6 -62 -9 -14 -24 -20 -44
-20 -28 1 -30 4 -30 40 0 23 -4 37 -10 33 -5 -3 -8 -23 -6 -44 2 -21 0 -45 -5
-52 -7 -12 -9 -11 -9 1 -1 8 -3 32 -5 54 -5 41 23 108 51 124 8 5 17 21 19 37
1 16 12 37 24 46 11 9 21 26 21 36 0 10 11 41 25 68 15 28 19 41 10 31 -8 -11
-15 -23 -15 -28 0 -4 -4 -8 -10 -8 -5 0 -10 14 -10 30 0 23 6 33 23 39 12 5
23 5 25 0 2 -5 10 -9 18 -9z m244 -10 c0 -5 -4 -10 -10 -10 -5 0 -10 5 -10 10
0 6 5 10 10 10 6 0 10 -4 10 -10z m136 -82 l-21 -72 -5 64 c-6 66 -1 80 31 80
14 0 14 -8 -5 -72z m-687 -5 c0 -38 -3 -61 -6 -53 -3 8 -14 39 -24 68 l-18 52
25 0 c23 0 24 -2 23 -67z m628 55 c-2 -7 -10 -12 -16 -10 -6 1 -11 -2 -11 -8
0 -5 -4 -10 -10 -10 -14 0 -12 27 3 33 23 10 39 7 34 -5z m-567 -14 c11 -12
10 -25 -4 -70 -9 -29 -19 -54 -22 -54 -2 0 -4 32 -4 70 0 71 7 83 30 54z m488
-30 l-3 -29 -13 23 c-8 13 -11 31 -7 39 9 26 27 0 23 -33z m-381 17 c3 -11 13
-21 24 -24 10 -3 19 -13 19 -22 0 -21 -28 -75 -39 -75 -24 0 -58 89 -52 133 2
16 43 6 48 -12z m553 -86 c0 -95 0 -95 -25 -95 -22 0 -25 4 -25 33 0 18 7 56
16 83 9 27 17 55 20 62 9 31 14 4 14 -83z m-730 -179 c-13 -42 -27 -76 -31
-76 -5 0 -9 75 -8 168 l1 167 30 -92 30 -91 -22 -76z m624 229 c3 -8 1 -15 -4
-15 -6 0 -10 7 -10 15 0 8 2 15 4 15 2 0 6 -7 10 -15z m-529 -252 c-9 -37 -19
-27 -39 39 -18 59 -18 64 -1 118 37 116 40 115 43 -15 1 -66 0 -130 -3 -142z
m65 137 c0 -14 -7 -35 -15 -46 -13 -17 -14 -13 -14 46 0 59 1 63 14 46 8 -11
15 -32 15 -46z m460 39 c0 -6 -4 -7 -10 -4 -5 3 -10 11 -10 16 0 6 5 7 10 4 6
-3 10 -11 10 -16z m-125 -29 c-3 -5 -11 -10 -16 -10 -6 0 -7 5 -4 10 3 6 11
10 16 10 6 0 7 -4 4 -10z m144 -67 c0 -10 -9 -40 -19 -68 l-18 -50 -1 68 c-1
61 1 67 19 67 13 0 20 -6 19 -17z m89 -83 c-3 -97 -4 -100 -26 -100 -30 0 -33
12 -30 106 l3 79 22 -60 c12 -33 22 -53 22 -44 1 9 -6 36 -14 59 -19 55 -19
60 5 60 20 0 21 -5 18 -100z m-158 43 l-1 -38 -19 24 c-26 30 -25 51 0 51 17
0 20 -7 20 -37z m-20 -39 c26 -45 24 -89 -5 -89 -18 0 -20 8 -23 63 -2 34 -1
62 2 62 2 0 14 -16 26 -36z m-534 -100 c-3 -8 -15 -14 -27 -14 -13 0 -19 5
-17 13 3 6 14 37 24 67 l19 55 3 -54 c2 -29 1 -60 -2 -67z m634 55 c0 -35 -4
-49 -14 -49 -21 0 -27 28 -15 71 16 50 29 40 29 -22z m-581 4 c1 -7 -3 -13 -9
-13 -5 0 -10 15 -9 33 0 27 2 29 9 12 5 -11 9 -26 9 -32z m41 -7 c0 -8 -4 -18
-10 -21 -5 -3 -10 3 -10 14 0 12 5 21 10 21 6 0 10 -6 10 -14z m616 -121 c-3
-13 -11 -37 -18 -52 l-11 -28 -7 30 c-12 50 -11 63 8 68 32 9 34 7 28 -18z
m-718 -28 c2 -20 -1 -37 -6 -37 -11 0 -32 66 -24 75 13 13 27 -4 30 -38z m545
-123 c-14 -25 -23 -57 -23 -85 -1 -39 -2 -42 -13 -24 -12 21 -17 106 -6 99 8
-5 19 32 19 69 0 15 8 44 17 65 l17 37 6 -60 c6 -52 3 -66 -17 -101z m59 104
c-9 -9 -12 -4 -11 23 0 32 1 33 11 11 8 -17 8 -26 0 -34z m35 0 c-3 -8 -6 -5
-6 6 -1 11 2 17 5 13 3 -3 4 -12 1 -19z m3 -140 c0 -81 -14 -138 -30 -122 -15
15 -21 213 -8 238 11 21 12 20 24 -9 7 -16 13 -65 14 -107z m70 75 c0 -24 -3
-33 -9 -25 -7 12 -4 62 5 62 2 0 4 -17 4 -37z m-33 -10 c-3 -10 -5 -4 -5 12 0
17 2 24 5 18 2 -7 2 -21 0 -30z m52 -75 c-1 -82 -2 -88 -11 -53 -8 36 -3 145
8 145 2 0 4 -42 3 -92z m-757 -46 c-9 -33 -10 -27 -10 43 0 75 1 77 10 37 6
-29 6 -57 0 -80z m126 11 c-3 -113 -13 -131 -36 -65 -25 68 -11 172 23 172 13
0 15 -16 13 -107z m338 61 c3 -65 4 -69 14 -54 8 13 11 13 23 0 17 -18 47 -94
47 -118 0 -25 -47 -68 -71 -64 -10 2 -19 -2 -19 -8 0 -14 -38 -3 -62 18 -15
12 -18 33 -18 118 0 56 2 108 5 116 3 8 20 13 42 12 29 -1 38 -5 39 -20z
m-102 -30 c3 -26 6 -78 6 -115 0 -83 -13 -88 -52 -23 -23 37 -28 57 -28 109 0
67 0 67 56 74 6 0 14 -20 18 -45z m234 -29 c-3 -63 -5 -73 -15 -58 -14 18 -17
90 -7 117 14 37 24 11 22 -59z m123 12 c-8 -8 -11 0 -10 29 1 39 1 39 11 11 7
-21 7 -32 -1 -40z m-675 18 c5 -31 -1 -74 -10 -64 -2 2 -6 25 -9 52 -8 54 9
65 19 12z m144 7 c0 -16 -7 -37 -15 -48 -13 -18 -14 -15 -15 29 0 35 4 47 15
47 10 0 15 -10 15 -28z m20 -87 c0 -40 3 -47 27 -56 14 -5 32 -17 39 -27 13
-16 13 -16 14 1 0 25 15 21 28 -8 9 -20 9 -25 -2 -25 -7 0 -19 -7 -26 -15 -7
-9 -29 -15 -52 -15 -39 0 -40 0 -33 33 l6 32 -19 -33 c-23 -42 -32 -32 -32 34
0 51 25 124 42 124 4 0 8 -20 8 -45z m502 -32 c-10 -26 -10 -24 -11 22 0 42 2
46 11 28 7 -15 7 -30 0 -50z m-696 -24 c-12 -25 -15 -27 -11 -9 2 14 5 39 6
55 0 27 1 28 10 9 8 -15 6 -30 -5 -55z m75 -57 c-8 -13 -10 -5 -10 33 1 48 1
49 10 17 6 -21 6 -39 0 -50z m658 17 c15 -56 12 -64 -19 -54 -16 5 -20 12 -16
28 3 12 6 34 6 50 0 43 15 31 29 -24z m-709 4 c0 -10 3 -28 6 -39 4 -16 0 -23
-17 -27 -13 -4 -24 -5 -26 -4 -1 2 3 22 9 45 10 42 28 57 28 25z m100 -14 c0
-11 -4 -17 -10 -14 -5 3 -10 13 -10 21 0 8 5 14 10 14 6 0 10 -9 10 -21z m-26
-24 c3 -8 1 -15 -4 -15 -6 0 -10 7 -10 15 0 8 2 15 4 15 2 0 6 -7 10 -15z
m178 -63 c-1 -7 -4 -32 -6 -55 -2 -23 -4 -45 -5 -49 -3 -17 -33 -36 -51 -31
-18 5 -24 21 -23 61 1 6 -3 12 -8 12 -10 0 -12 -10 -10 -50 1 -23 0 -23 -8 -5
-5 11 -10 36 -10 56 -1 29 3 38 19 42 11 3 20 13 20 22 0 13 8 16 43 13 28 -2
41 -7 39 -16z m-243 -81 l0 -66 -23 65 c-13 36 -21 68 -19 72 1 3 12 4 23 1
18 -5 20 -13 19 -72z m705 57 c-4 -13 -13 -45 -20 -72 -19 -71 -24 -68 -24 17
0 76 0 77 26 77 22 0 24 -3 18 -22z m-649 -76 c-20 -66 -25 -63 -25 19 l0 74
19 -24 c17 -22 18 -29 6 -69z m20 78 c3 -5 1 -10 -4 -10 -6 0 -11 5 -11 10 0
6 2 10 4 10 3 0 8 -4 11 -10z m481 -36 c5 -38 2 -55 -17 -93 l-24 -46 -3 84
c-2 61 1 87 10 92 23 15 27 10 34 -37z m44 10 c0 -8 -4 -14 -10 -14 -5 0 -10
9 -10 21 0 11 5 17 10 14 6 -3 10 -13 10 -21z m27 -21 c-3 -10 -5 -4 -5 12 0
17 2 24 5 18 2 -7 2 -21 0 -30z m96 -302 c-2 -2 -5 2 -7 10 -2 8 -14 45 -26
83 l-22 68 23 87 24 86 5 -165 c3 -91 4 -167 3 -169z m-723 160 c7 -41 1 -76
-27 -141 -11 -27 -20 40 -21 170 l-1 125 20 -55 c11 -30 24 -75 29 -99z m628
-16 c-3 -49 -11 -103 -19 -120 -13 -28 -14 -19 -17 110 -3 158 3 188 25 135
11 -26 14 -59 11 -125z m-538 105 c0 -24 -5 -40 -12 -40 -6 0 -8 3 -5 7 4 3 3
11 -3 18 -10 13 -2 55 11 55 5 0 9 -18 9 -40z m-6790 0 c0 -5 -4 -10 -10 -10
-5 0 -10 5 -10 10 0 6 5 10 10 10 6 0 10 -4 10 -10z m200 0 c0 -5 -4 -10 -10
-10 -5 0 -10 5 -10 10 0 6 5 10 10 10 6 0 10 -4 10 -10z m160 -20 c0 -5 -4
-10 -10 -10 -5 0 -10 5 -10 10 0 6 5 10 10 10 6 0 10 -4 10 -10z m80 -14 c0
-3 -4 -8 -10 -11 -5 -3 -10 -1 -10 4 0 6 5 11 10 11 6 0 10 -2 10 -4z m57 -2
c-3 -3 -12 -4 -19 -1 -8 3 -5 6 6 6 11 1 17 -2 13 -5z m6287 -26 c-10 -16 -34
-7 -34 12 0 17 3 19 19 8 11 -7 17 -16 15 -20z m476 -60 l0 -83 -20 25 c-11
14 -20 38 -20 53 0 26 25 87 35 87 3 0 5 -37 5 -82z m-6560 64 c0 -4 -9 -8
-19 -8 -11 0 -17 4 -15 8 3 4 12 8 20 8 8 0 14 -4 14 -8z m500 -42 c0 -5 -5
-10 -11 -10 -5 0 -7 5 -4 10 3 6 8 10 11 10 2 0 4 -4 4 -10z m5570 2 c0 -5 -7
-17 -15 -28 -14 -18 -14 -18 -15 9 0 17 5 27 15 27 8 0 15 -4 15 -8z m-5195
-52 c3 -5 -1 -10 -9 -10 -9 0 -16 5 -16 10 0 6 4 10 9 10 6 0 13 -4 16 -10z
m5823 -90 c27 -93 27 -90 -3 -90 -24 0 -25 2 -25 74 0 41 -3 83 -6 93 -5 12
-4 15 3 8 5 -5 20 -44 31 -85z m-5738 55 c0 -8 -4 -15 -8 -15 -5 0 -9 7 -9 15
0 8 4 15 9 15 4 0 8 -7 8 -15z m5580 -27 c11 -18 20 -50 20 -70 0 -31 -4 -38
-20 -38 -18 0 -20 7 -20 54 0 30 -3 61 -6 70 -11 28 5 17 26 -16z m-5615 13
c3 -5 1 -12 -5 -16 -5 -3 -10 1 -10 9 0 18 6 21 15 7z m102 -16 c-4 -8 -12
-15 -19 -14 -10 0 -10 2 0 6 6 2 12 12 12 21 0 8 3 13 6 9 4 -3 4 -13 1 -22z
m4980 -17 c-3 -8 -6 -5 -6 6 -1 11 2 17 5 13 3 -3 4 -12 1 -19z m633 -40 c-1
-48 -2 -51 -15 -34 -9 12 -12 29 -8 45 14 59 23 54 23 -11z m-630 -22 c0 -22
-6 -36 -16 -40 -24 -9 -34 -7 -29 7 19 54 26 67 35 67 5 0 10 -15 10 -34z m50
27 c0 -5 -5 -15 -10 -23 -8 -12 -10 -11 -10 8 0 12 5 22 10 22 6 0 10 -3 10
-7z m-4444 -29 c14 4 24 2 24 -4 0 -5 -10 -10 -22 -10 -34 0 -68 11 -68 22 0
5 9 4 21 -2 11 -7 32 -9 45 -6z m4863 5 c53 -18 35 -29 -49 -29 -63 0 -80 3
-80 14 0 14 22 21 76 25 12 0 35 -4 53 -10z m-5099 -3 c0 -3 -4 -8 -10 -11 -5
-3 -10 -1 -10 4 0 6 5 11 10 11 6 0 10 -2 10 -4z m4904 -2 c20 -8 21 -24 2
-24 -8 0 -16 7 -20 15 -6 17 -4 18 18 9z m-116 -16 c-7 -19 -38 -22 -38 -4 0
10 9 16 21 16 12 0 19 -5 17 -12z m-93 -8 c3 -5 1 -10 -4 -10 -6 0 -11 5 -11
10 0 6 2 10 4 10 3 0 8 -4 11 -10z m-2375 -29 c0 -16 -28 -20 -40 -5 -10 12
-8 14 14 14 14 0 26 -4 26 -9z m2581 -62 l-21 -34 0 42 c0 32 4 42 18 45 25 5
26 -15 3 -53z m237 12 c2 -28 -5 -64 -19 -100 -28 -70 -28 -70 -44 -48 -12 16
-14 15 -24 -14 -6 -18 -11 -47 -11 -65 0 -19 -5 -34 -11 -34 -6 0 -18 -8 -27
-17 -16 -16 -17 -15 -20 11 -2 17 3 35 12 44 15 15 16 15 17 -3 1 -16 3 -15 8
5 10 31 6 36 -14 20 -9 -7 -19 -10 -23 -6 -11 12 -16 226 -4 226 6 0 12 -3 15
-7 2 -5 2 -2 0 5 -6 27 10 33 75 30 l67 -3 3 -44z m105 35 c6 -15 -1 -26 -15
-26 -4 0 -8 9 -8 20 0 23 15 27 23 6z m-623 -35 c0 -11 -4 -23 -10 -26 -5 -3
-10 -2 -10 4 0 5 -3 16 -6 25 -4 11 -1 16 10 16 9 0 16 -8 16 -19z m330 -83
c-1 -102 -1 -103 -20 -80 -10 12 -25 21 -32 20 -24 -5 -21 58 7 111 14 28 30
51 35 51 6 0 10 -42 10 -102z m-272 57 c-3 -3 -9 2 -12 12 -6 14 -5 15 5 6 7
-7 10 -15 7 -18z m644 -2 c-3 -16 -7 -22 -10 -15 -4 13 4 42 11 42 2 0 2 -12
-1 -27z m-645 -45 c-3 -7 -5 -2 -5 12 0 14 2 19 5 13 2 -7 2 -19 0 -25z m710
-40 c-3 -7 -5 -2 -5 12 0 14 2 19 5 13 2 -7 2 -19 0 -25z m-502 -122 c0 -29
-3 -36 -17 -36 -16 0 -17 -3 -8 -20 15 -28 -4 -60 -34 -60 -21 0 -25 7 -32 43
-13 71 2 104 33 71 10 -11 15 -15 11 -10 -10 13 -10 70 -1 80 14 13 46 -33 48
-68z m-258 17 c-3 -10 -5 -4 -5 12 0 17 2 24 5 18 2 -7 2 -21 0 -30z m309 -21
c-15 -15 -16 -15 -16 1 0 10 5 15 10 12 6 -3 10 2 11 12 0 12 2 14 6 5 3 -8
-2 -21 -11 -30z m214 -29 c-1 -27 -1 -27 -15 -9 -14 19 -12 36 6 36 5 0 9 -12
9 -27z m-21 -34 c14 -47 6 -115 -15 -123 -8 -3 -14 1 -14 9 0 8 -7 15 -15 15
-8 0 -15 -7 -15 -15 0 -10 -10 -15 -30 -15 -37 0 -39 17 -9 86 21 48 53 83 75
84 6 0 16 -18 23 -41z m-349 -4 c0 -11 -32 -67 -36 -63 -6 7 19 68 28 68 4 0
8 -2 8 -5z m214 -17 c-5 -8 -2 -9 9 -5 21 8 21 5 3 -38 -19 -45 -28 -44 -25 3
3 38 7 52 15 52 3 0 2 -5 -2 -12z m333 -102 c-9 -23 -37 -20 -37 3 0 21 20 33
34 20 5 -4 6 -15 3 -23z m1713 -86 c0 -5 -2 -10 -4 -10 -3 0 -8 5 -11 10 -3 6
-1 10 4 10 6 0 11 -4 11 -10z m-3080 -215 c0 -20 -28 -31 -42 -17 -9 9 -8 18
2 36 11 21 15 23 26 11 8 -7 14 -21 14 -30z m-1544 -20 c-7 -19 -35 -19 -42
-1 -3 8 0 24 6 36 l12 22 15 -21 c8 -12 12 -28 9 -36z m597 -2 c-7 -17 -32
-17 -39 1 -3 8 0 25 6 37 l13 22 12 -23 c7 -13 11 -30 8 -37z m377 12 c0 -20
-28 -31 -42 -17 -9 9 -8 18 2 36 11 21 15 23 26 11 8 -7 14 -21 14 -30z m488
1 c-2 -13 -10 -21 -23 -21 -23 0 -32 30 -14 51 16 19 41 -1 37 -30z m-2010
-10 c-2 -13 -10 -21 -23 -21 -23 0 -32 30 -14 51 16 19 41 -1 37 -30z m722 3
c0 -12 -7 -19 -20 -19 -14 0 -20 7 -20 23 0 13 3 27 7 30 10 11 33 -13 33 -34z
m1718 18 c4 -20 -25 -34 -39 -20 -14 14 1 45 20 41 9 -2 17 -11 19 -21z m82 3
c0 -13 -7 -20 -20 -20 -13 0 -20 7 -20 20 0 13 7 20 20 20 13 0 20 -7 20 -20z
m-1446 -7 c8 -19 -17 -48 -33 -39 -12 8 -15 39 -4 49 12 12 31 7 37 -10z m516
-2 c0 -11 -5 -23 -11 -27 -15 -9 -33 12 -26 30 9 23 37 20 37 -3z m-3186 -46
c-8 -21 -38 -15 -42 8 -2 10 2 25 9 33 10 13 14 12 25 -5 8 -11 11 -27 8 -36z
m1068 43 c8 -21 -2 -38 -23 -38 -19 0 -27 29 -12 43 11 11 31 8 35 -5z m903 2
c9 -15 -4 -50 -20 -50 -18 0 -28 30 -14 46 14 17 25 18 34 4z m275 -10 c9 -16
8 -22 -5 -26 -21 -8 -39 10 -32 30 9 22 24 20 37 -4z m-3026 -8 c-1 -7 -2 -27
-3 -44 -3 -32 -3 -32 -11 -8 -13 40 -12 72 3 68 6 -3 12 -10 11 -16z m1194
-26 c-2 -13 -10 -21 -23 -21 -23 0 -32 30 -14 51 16 19 41 -1 37 -30z m117 19
c0 -28 -29 -25 -33 3 -3 19 0 23 15 20 10 -2 18 -12 18 -23z m393 -8 c2 -19
-1 -27 -13 -27 -19 0 -30 24 -21 46 9 23 31 11 34 -19z m-2078 -25 c0 -15 -48
-35 -67 -28 -18 7 -17 41 2 56 8 7 15 9 15 4 0 -4 5 -3 12 4 9 9 14 7 24 -6 8
-9 14 -23 14 -30z m90 17 c0 -12 -7 -19 -20 -19 -22 0 -29 35 -7 43 18 6 27
-2 27 -24z m450 22 c0 -5 11 -12 25 -15 16 -4 25 -13 25 -26 0 -11 5 -20 12
-20 6 0 4 -8 -6 -19 -15 -17 -16 -19 -1 -25 9 -3 21 -4 26 0 5 3 9 1 9 -4 0
-17 -48 -20 -65 -3 -12 13 -19 13 -35 3 -16 -10 -18 -9 -13 4 3 8 0 26 -7 40
-11 20 -11 28 0 49 13 25 30 34 30 16z m188 -13 c-5 -32 -28 -35 -28 -4 0 17
5 26 16 26 10 0 14 -7 12 -22z m1862 15 c0 -5 -5 -15 -10 -23 -9 -13 -11 -13
-20 0 -15 22 -12 30 10 30 11 0 20 -3 20 -7z m-1950 -22 c0 -28 -21 -37 -36
-16 -16 22 -10 35 17 35 12 0 19 -7 19 -19z m400 -6 c0 -25 -23 -35 -35 -15
-10 16 2 40 20 40 9 0 15 -9 15 -25z m-574 -40 c-3 -9 -18 -15 -36 -15 -25 0
-30 4 -30 25 0 18 5 25 20 25 11 0 20 6 20 12 0 7 7 2 16 -10 9 -13 13 -29 10
-37z m-596 -10 c-7 -8 -16 -15 -20 -15 -15 0 -20 31 -8 50 12 18 12 18 26 -1
11 -16 11 -23 2 -34z m918 -35 c12 0 13 -3 5 -11 -13 -13 -53 -3 -53 13 0 5 7
7 16 4 9 -3 23 -6 32 -6z m5765 -76 c-3 -8 -11 -14 -18 -14 -18 0 -26 25 -12
39 14 14 38 -5 30 -25z m92 11 c0 -11 -8 -21 -17 -23 -14 -3 -18 3 -18 23 0
20 4 26 18 23 9 -2 17 -12 17 -23z m-6887 -87 c-2 -13 -10 -23 -18 -23 -8 0
-16 10 -18 23 -3 17 2 22 18 22 16 0 21 -5 18 -22z m-63 -13 c0 -28 -29 -25
-33 3 -3 19 0 23 15 20 10 -2 18 -12 18 -23z m4338 -41 c-7 -19 -39 -18 -47 1
-3 9 0 24 6 35 12 18 12 18 29 -2 10 -11 15 -26 12 -34z m250 0 c-3 -8 0 -14
5 -14 6 0 23 -16 38 -35 25 -33 26 -37 10 -54 -9 -9 -16 -23 -16 -30 0 -8 -5
-9 -19 -2 -24 14 -31 5 -31 -40 0 -69 -45 -63 -53 7 -3 27 -12 50 -23 58 -17
13 -17 16 0 72 10 33 28 66 39 76 20 15 22 15 38 -4 10 -11 15 -26 12 -34z
m-1105 24 l18 23 13 -24 c7 -14 10 -30 7 -36 -10 -15 -43 -14 -49 2 -4 10 -7
10 -18 0 -29 -29 -59 1 -37 36 11 18 12 18 30 -3 l18 -21 18 23z m221 -2 c15
-28 8 -46 -19 -46 -24 0 -33 26 -17 50 15 26 21 25 36 -4z m-763 -41 c-6 -18
-32 -20 -42 -4 -3 6 -1 22 6 35 13 24 13 24 28 3 7 -11 11 -26 8 -34z m-2466
8 c0 -7 -7 -16 -15 -19 -8 -4 -15 -15 -15 -25 0 -12 -7 -19 -19 -19 -27 0 -34
15 -19 42 26 47 40 59 55 47 7 -6 13 -18 13 -26z m1140 21 c3 1 18 -9 33 -20
l27 -22 -29 -10 c-40 -14 -87 -1 -83 23 3 15 -1 17 -27 12 -34 -7 -40 0 -15
18 11 7 31 9 53 5 20 -3 38 -6 41 -6z m301 6 c5 0 9 -4 9 -10 0 -5 -13 -10
-29 -10 -16 0 -34 -7 -41 -15 -15 -18 -59 -20 -65 -2 -3 7 -24 12 -58 11 -58
0 -87 5 -87 16 0 4 35 8 79 9 63 1 80 -1 84 -14 8 -20 24 -19 50 5 12 11 27
18 35 15 7 -3 18 -5 23 -5z m241 -5 c9 9 108 14 108 6 0 -5 -7 -14 -15 -21
-11 -9 -18 -10 -29 -1 -9 7 -29 9 -55 5 -35 -6 -41 -4 -41 11 0 13 3 15 13 6
8 -6 16 -9 19 -6z m332 -37 c-7 -12 -44 -10 -44 2 0 6 6 19 12 30 12 19 13 19
24 -3 7 -12 10 -25 8 -29z m-1395 27 c10 -11 -15 -18 -56 -16 -13 0 -23 7 -23
16 0 10 9 13 37 9 20 -2 39 -7 42 -9z m371 2 c0 -5 -11 -7 -25 -5 -14 3 -25 1
-25 -4 0 -6 -7 -7 -16 -4 -12 5 -15 2 -10 -10 4 -11 1 -14 -12 -12 -9 2 -16
10 -14 17 1 7 -2 10 -7 7 -5 -4 -12 -2 -15 3 -7 11 14 16 77 17 26 0 47 -4 47
-9z m30 3 c0 -5 -4 -10 -10 -10 -5 0 -10 5 -10 10 0 6 5 10 10 10 6 0 10 -4
10 -10z m620 -7 c0 -8 -4 -11 -10 -8 -5 3 -23 -1 -39 -9 -25 -13 -31 -14 -41
-1 -7 8 -15 14 -18 13 -25 -3 -52 4 -52 12 0 7 30 10 80 9 62 -1 80 -5 80 -16z
m886 2 c10 -24 -5 -36 -27 -24 -16 8 -18 13 -8 25 15 18 28 18 35 -1z m-2155
-18 c0 5 4 -1 8 -12 12 -29 2 -58 -15 -44 -7 6 -17 8 -22 6 -19 -13 -34 11
-27 42 7 31 7 32 31 16 13 -8 24 -12 25 -8z m279 13 c0 -5 -4 -10 -10 -10 -5
0 -10 5 -10 10 0 6 5 10 10 10 6 0 10 -4 10 -10z m60 -5 c0 -16 -27 -32 -36
-22 -7 6 17 36 29 37 4 0 7 -7 7 -15z m30 5 c0 -5 -4 -10 -10 -10 -5 0 -10 5
-10 10 0 6 5 10 10 10 6 0 10 -4 10 -10z m80 3 c0 -5 -16 -9 -35 -9 -19 -1
-35 3 -35 7 0 5 16 9 35 9 19 0 35 -3 35 -7z m30 -3 c0 -5 -4 -10 -10 -10 -5
0 -10 5 -10 10 0 6 5 10 10 10 6 0 10 -4 10 -10z m1100 -9 c0 -11 -26 -22 -34
-14 -12 12 -5 23 14 23 11 0 20 -4 20 -9z m2010 -21 c0 -5 -5 -10 -11 -10 -5
0 -7 5 -4 10 3 6 8 10 11 10 2 0 4 -4 4 -10z m-630 -10 c0 -5 -5 -10 -11 -10
-5 0 -7 5 -4 10 3 6 8 10 11 10 2 0 4 -4 4 -10z m1763 -79 c11 -1 -2 -42 -19
-59 -12 -11 -16 -11 -30 3 -24 23 -11 66 19 61 12 -3 26 -5 30 -5z m97 -9 c0
-5 -7 -9 -15 -9 -8 0 -12 4 -9 9 3 4 9 8 15 8 5 0 9 -4 9 -8z m10 -47 c0 -3
-9 -5 -20 -5 -11 0 -20 7 -20 15 0 13 4 14 20 5 11 -6 20 -13 20 -15z m-3215
5 c3 -5 -3 -10 -15 -10 -12 0 -18 5 -15 10 3 6 10 10 15 10 5 0 12 -4 15 -10z
m5288 -68 c-7 -28 -17 -28 -30 1 -7 16 -8 29 -1 41 9 17 11 17 23 -2 8 -10 11
-29 8 -40z m-5393 28 c8 -5 11 -12 7 -16 -4 -4 -15 0 -24 9 -18 18 -8 23 17 7z
m5108 -8 c2 -7 -5 -16 -17 -19 -24 -6 -26 -15 -9 -43 10 -15 9 -22 -5 -37 -22
-26 -87 -20 -87 8 0 10 -4 20 -9 24 -17 10 40 57 61 51 14 -3 22 1 25 15 6 22
34 22 41 1z m70 -5 c2 -12 -3 -17 -17 -17 -12 0 -21 6 -21 13 0 31 32 34 38 4z
m107 13 c11 -17 -5 -32 -21 -19 -7 6 -11 15 -8 20 7 12 21 11 29 -1z m-293
-15 c0 -5 -5 -11 -11 -13 -6 -2 -11 4 -11 13 0 9 5 15 11 13 6 -2 11 -8 11
-13z m1094 2 c2 -2 5 -19 8 -39 5 -40 -4 -48 -54 -48 -22 0 -29 5 -33 26 -2
14 1 37 7 50 9 21 16 24 40 19 16 -3 31 -7 32 -8z m-548 -3 c12 -4 22 -11 22
-17 0 -6 7 -18 15 -27 13 -15 13 -19 -8 -37 -30 -28 -80 -21 -96 15 -10 21 -9
27 3 34 9 5 16 16 16 23 0 16 12 18 48 9z m-7288 -14 c0 -5 -4 -10 -10 -10 -5
0 -10 5 -10 10 0 6 5 10 10 10 6 0 10 -4 10 -10z m1874 -19 c0 -16 4 -20 18
-15 23 7 23 -4 -1 -35 -18 -23 -18 -23 -47 -5 l-29 18 18 -21 c26 -30 2 -42
-27 -14 -17 18 -18 23 -7 30 16 10 5 34 -13 28 -7 -3 -19 -1 -27 5 -11 8 -10
9 4 4 11 -3 17 0 17 10 0 11 7 13 28 8 15 -4 33 -12 41 -18 11 -9 13 -7 6 13
-5 17 -4 22 6 19 8 -3 14 -15 13 -27z m56 25 c0 -11 -19 -15 -25 -6 -3 5 1 10
9 10 9 0 16 -2 16 -4z m-1760 -16 c0 -5 -7 -10 -15 -10 -8 0 -15 5 -15 10 0 6
7 10 15 10 8 0 15 -4 15 -10z m1210 -7 c0 -7 -4 -13 -9 -13 -5 0 -15 -2 -23
-5 -17 -6 -42 10 -35 22 9 15 67 12 67 -4z m4444 1 c33 -33 37 -52 16 -72 -30
-28 -83 -18 -97 18 -9 24 -8 29 8 33 11 3 19 12 19 21 0 21 34 21 54 0z m506
-6 c0 -10 7 -21 15 -24 12 -5 11 -11 -8 -34 -16 -20 -27 -25 -42 -20 -11 4
-24 8 -30 9 -5 1 -15 12 -21 24 -10 18 -8 25 10 44 26 28 76 28 76 1z m-5854
-10 c-16 -9 -36 -3 -36 11 0 5 12 6 26 3 22 -4 24 -6 10 -14z m209 12 c3 -5 1
-10 -4 -10 -6 0 -11 5 -11 10 0 6 2 10 4 10 3 0 8 -4 11 -10z m235 0 c12 -8 9
-10 -12 -10 -16 0 -28 5 -28 10 0 13 20 13 40 0z m210 0 c0 -5 -2 -10 -4 -10
-3 0 -8 5 -11 10 -3 6 -1 10 4 10 6 0 11 -4 11 -10z m608 -9 c3 -8 -1 -12 -9
-9 -7 2 -15 10 -17 17 -3 8 1 12 9 9 7 -2 15 -10 17 -17z m3073 9 c5 0 9 -5 9
-12 0 -6 7 -19 15 -28 13 -15 13 -19 -5 -38 -30 -31 -84 -28 -97 7 -7 22 -5
31 16 54 15 15 32 25 39 22 8 -3 18 -5 23 -5z m504 2 c6 -4 18 -17 28 -29 18
-21 18 -22 -2 -45 -28 -32 -88 -27 -101 8 -15 40 42 90 75 66z m1355 -2 c0 -5
-2 -10 -4 -10 -3 0 -8 5 -11 10 -3 6 -1 10 4 10 6 0 11 -4 11 -10z m-3130 -20
c-7 -4 -17 -14 -22 -21 -8 -11 -9 -10 -4 4 4 13 0 17 -20 17 -14 0 -23 4 -20
8 3 4 21 6 42 4 22 -3 31 -7 24 -12z m50 10 c0 -5 -7 -10 -15 -10 -8 0 -15 5
-15 10 0 6 7 10 15 10 8 0 15 -4 15 -10z m-706 -21 c-3 -5 -10 -7 -15 -3 -5 3
-7 10 -3 15 3 5 10 7 15 3 5 -3 7 -10 3 -15z m376 -61 c0 -28 -1 -29 -47 -26
-39 2 -49 7 -51 23 -1 11 9 33 24 48 l26 28 24 -22 c15 -14 24 -34 24 -51z
m-2420 46 c0 -8 -4 -12 -10 -9 -5 3 -10 10 -10 16 0 5 5 9 10 9 6 0 10 -7 10
-16z m180 6 c0 -5 -4 -10 -10 -10 -5 0 -10 5 -10 10 0 6 5 10 10 10 6 0 10 -4
10 -10z m1678 4 c12 -4 22 -11 22 -17 0 -6 7 -18 15 -27 13 -15 13 -19 -6 -38
-29 -32 -89 -27 -101 9 -7 21 -4 32 14 53 26 29 24 28 56 20z m-2178 -14 c0
-5 -4 -10 -10 -10 -5 0 -10 5 -10 10 0 6 5 10 10 10 6 0 10 -4 10 -10z m1635
4 c11 -3 28 -19 38 -36 18 -31 18 -32 -4 -52 -29 -27 -89 -24 -89 5 0 10 -7
22 -17 27 -14 9 -14 11 5 21 12 7 22 18 22 26 0 16 12 18 45 9z m-1590 -34
c-3 -5 -11 -10 -16 -10 -6 0 -7 5 -4 10 3 6 11 10 16 10 6 0 7 -4 4 -10z m499
-6 c20 -20 20 -33 0 -55 -17 -19 -37 -16 -63 10 -15 14 -14 18 4 38 24 27 38
29 59 7z m-1414 -9 c0 -8 -9 -15 -20 -15 -13 0 -18 5 -14 15 4 8 12 15 20 15
8 0 14 -7 14 -15z m-696 -31 c9 -3 16 -13 16 -20 0 -8 6 -17 14 -20 21 -8 15
-45 -9 -53 -11 -4 -36 -7 -55 -6 -28 1 -36 6 -38 23 -2 12 -8 22 -13 22 -17 0
-9 18 11 23 11 3 20 12 20 21 0 16 25 21 54 10z m-589 -22 c6 -4 16 -17 23
-30 11 -19 11 -27 0 -40 -20 -26 -25 -28 -61 -24 -47 5 -64 44 -34 76 22 24
54 32 72 18z m155 -12 c0 -5 -7 -10 -15 -10 -8 0 -15 5 -15 10 0 6 7 10 15 10
8 0 15 -4 15 -10z m8290 0 c0 -5 -9 -10 -20 -10 -11 0 -20 5 -20 10 0 6 9 10
20 10 11 0 20 -4 20 -10z m485 0 c-3 -5 -12 -10 -20 -10 -8 0 -17 5 -20 10 -4
6 5 10 20 10 15 0 24 -4 20 -10z m-975 -10 c0 -5 -9 -10 -20 -10 -11 0 -20 5
-20 10 0 6 9 10 20 10 11 0 20 -4 20 -10z m-1005 -10 c4 -6 -6 -10 -22 -10
-22 0 -25 2 -13 10 19 12 27 12 35 0z m507 -2 c-8 -8 -17 -8 -34 0 -22 10 -21
11 12 11 26 1 31 -2 22 -11z m-1007 -7 c6 -11 -22 -19 -47 -13 -10 2 -15 8
-12 13 7 12 51 12 59 0z m-1571 -30 c7 -11 -31 -22 -51 -14 -12 5 -12 7 -1 14
17 11 45 11 52 0z m-520 -16 c-1 -18 -51 -30 -68 -16 -9 7 -13 18 -10 23 8 12
79 6 78 -7z m-551 -10 c-3 -13 -30 -18 -51 -10 -14 5 -14 7 -2 16 19 11 56 8
53 -6z m175 -2 c-10 -2 -28 -2 -40 0 -13 2 -5 4 17 4 22 1 32 -1 23 -4z
m-3381 -79 c4 -12 -22 -44 -36 -44 -19 0 -44 28 -38 44 8 20 68 19 74 0z
m-600 -20 c10 -26 -19 -47 -50 -35 -28 11 -36 36 -14 44 26 11 58 6 64 -9z"/>
<path d="M7470 2101 c0 -6 4 -13 10 -16 6 -3 7 1 4 9 -7 18 -14 21 -14 7z"/>
<path d="M2950 4980 c0 -5 5 -10 11 -10 5 0 7 5 4 10 -3 6 -8 10 -11 10 -2 0
-4 -4 -4 -10z"/>
<path d="M2780 4929 c-15 -28 -8 -33 13 -9 9 11 12 22 7 25 -5 3 -14 -4 -20
-16z"/>
<path d="M2846 4885 c-3 -8 -1 -15 4 -15 13 0 22 18 11 24 -5 3 -11 -1 -15 -9z"/>
<path d="M2713 4855 c-17 -19 -16 -30 0 -16 8 6 17 8 21 4 4 -4 4 0 0 10 -7
20 -6 20 -21 2z"/>
<path d="M2770 4866 c0 -2 7 -7 16 -10 8 -3 12 -2 9 4 -6 10 -25 14 -25 6z"/>
<path d="M2600 4851 c0 -5 7 -12 16 -15 22 -9 24 -8 18 9 -7 16 -34 21 -34 6z"/>
<path d="M2475 4816 c-22 -23 -26 -36 -11 -30 8 3 17 13 20 21 8 20 4 24 -9 9z"/>
<path d="M2570 4810 c0 -5 7 -10 16 -10 8 0 12 5 9 10 -3 6 -10 10 -16 10 -5
0 -9 -4 -9 -10z"/>
<path d="M2540 4791 c-6 -12 -7 -21 -1 -21 10 0 24 30 17 37 -2 3 -9 -5 -16
-16z"/>
<path d="M2650 4800 c0 -5 5 -10 11 -10 5 0 7 5 4 10 -3 6 -8 10 -11 10 -2 0
-4 -4 -4 -10z"/>
<path d="M2380 4793 c-8 -3 -17 -9 -20 -13 -3 -3 -16 -14 -30 -23 -17 -12 -19
-17 -9 -17 9 0 29 11 44 24 16 14 33 22 38 19 6 -3 7 -1 3 5 -4 7 -8 12 -9 11
-1 0 -9 -3 -17 -6z"/>
<path d="M2301 4774 c0 -11 3 -14 6 -6 3 7 2 16 -1 19 -3 4 -6 -2 -5 -13z"/>
<path d="M2385 4750 c-3 -5 -1 -10 4 -10 6 0 11 5 11 10 0 6 -2 10 -4 10 -3 0
-8 -4 -11 -10z"/>
<path d="M2500 4740 c0 -5 5 -10 10 -10 6 0 10 5 10 10 0 6 -4 10 -10 10 -5 0
-10 -4 -10 -10z"/>
<path d="M2387 4724 c7 -3 9 -13 6 -22 -4 -14 -3 -14 5 -2 12 16 7 30 -11 29
-9 0 -9 -2 0 -5z"/>
<path d="M2177 4670 c-5 -18 -8 -19 -31 -9 -26 12 -50 5 -31 -9 6 -4 10 -16
10 -27 0 -12 8 -21 20 -23 l20 -4 -20 16 c-11 8 -18 16 -15 16 3 1 14 4 25 7
11 3 29 5 41 5 19 0 20 3 10 24 -13 29 -22 30 -29 4z"/>
<path d="M2066 4583 c-3 -4 3 -13 15 -21 11 -8 22 -12 23 -11 5 7 -32 37 -38
32z"/>
<path d="M1940 4560 c0 -6 7 -10 15 -10 8 0 15 2 15 4 0 2 -7 6 -15 10 -8 3
-15 1 -15 -4z"/>
<path d="M1845 4530 c-3 -5 -1 -10 4 -10 6 0 11 5 11 10 0 6 -2 10 -4 10 -3 0
-8 -4 -11 -10z"/>
<path d="M1966 4524 c-4 -9 -4 -19 -1 -22 2 -3 7 3 11 12 4 9 4 19 1 22 -2 3
-7 -3 -11 -12z"/>
<path d="M6940 4530 c-8 -5 -12 -12 -9 -15 4 -3 12 1 19 10 14 17 11 19 -10 5z"/>
<path d="M1690 4441 c0 -5 5 -13 10 -16 6 -3 10 -2 10 4 0 5 -4 13 -10 16 -5
3 -10 2 -10 -4z"/>
<path d="M1610 4400 c20 -13 33 -13 25 0 -3 6 -14 10 -23 10 -15 0 -15 -2 -2
-10z"/>
<path d="M1570 4389 c0 -5 5 -7 10 -4 6 3 10 8 10 11 0 2 -4 4 -10 4 -5 0 -10
-5 -10 -11z"/>
<path d="M1707 4383 c-4 -3 -7 -11 -7 -17 0 -6 5 -5 12 2 6 6 9 14 7 17 -3 3
-9 2 -12 -2z"/>
<path d="M1595 4370 c-3 -5 1 -10 9 -10 8 0 18 5 21 10 3 6 -1 10 -9 10 -8 0
-18 -4 -21 -10z"/>
<path d="M1275 4232 c-3 -8 -4 -16 -2 -18 5 -5 57 20 57 27 0 14 -49 6 -55 -9z"/>
<path d="M1140 4171 c0 -5 7 -11 15 -15 9 -3 15 0 15 9 0 8 -7 15 -15 15 -8 0
-15 -4 -15 -9z"/>
<path d="M1030 4144 c0 -8 5 -12 10 -9 6 3 10 10 10 16 0 5 -4 9 -10 9 -5 0
-10 -7 -10 -16z"/>
<path d="M1095 4090 c-3 -5 -1 -10 4 -10 6 0 11 5 11 10 0 6 -2 10 -4 10 -3 0
-8 -4 -11 -10z"/>
<path d="M975 4020 c3 -5 10 -10 16 -10 5 0 9 5 9 10 0 6 -7 10 -16 10 -8 0
-12 -4 -9 -10z"/>
<path d="M750 4000 c20 -13 33 -13 25 0 -3 6 -14 10 -23 10 -15 0 -15 -2 -2
-10z"/>
<path d="M810 4000 c0 -5 7 -10 16 -10 8 0 12 5 9 10 -3 6 -10 10 -16 10 -5 0
-9 -4 -9 -10z"/>
<path d="M656 3885 c4 -8 8 -15 10 -15 2 0 4 7 4 15 0 8 -4 15 -10 15 -5 0 -7
-7 -4 -15z"/>
<path d="M610 3820 c0 -5 5 -10 10 -10 6 0 10 5 10 10 0 6 -4 10 -10 10 -5 0
-10 -4 -10 -10z"/>
<path d="M469 3762 c-14 -6 -14 -9 -4 -19 10 -9 14 -8 18 8 3 10 4 19 4 18 -1
0 -9 -3 -18 -7z"/>
<path d="M500 3719 c0 -5 5 -7 10 -4 6 3 10 8 10 11 0 2 -4 4 -10 4 -5 0 -10
-5 -10 -11z"/>
<path d="M425 3690 c3 -5 8 -10 11 -10 2 0 4 5 4 10 0 6 -5 10 -11 10 -5 0 -7
-4 -4 -10z"/>
<path d="M400 3629 c0 -5 5 -7 10 -4 6 3 10 8 10 11 0 2 -4 4 -10 4 -5 0 -10
-5 -10 -11z"/>
<path d="M328 3573 c7 -3 16 -2 19 1 4 3 -2 6 -13 5 -11 0 -14 -3 -6 -6z"/>
<path d="M160 3465 c0 -9 6 -12 15 -9 8 4 12 10 9 15 -8 14 -24 10 -24 -6z"/>
<path d="M3 3276 c0 -26 12 -33 32 -18 13 9 17 32 6 32 -5 0 -16 3 -24 6 -10
4 -14 -2 -14 -20z"/>
<path d="M0 3220 c0 -5 12 -10 28 -10 21 0 24 2 12 10 -20 13 -40 13 -40 0z"/>
<path d="M0 3145 c0 -42 10 -56 16 -22 1 7 5 19 8 28 4 9 0 21 -9 29 -13 11
-15 7 -15 -35z"/>
<path d="M76 3076 c3 -8 12 -12 21 -9 12 5 12 7 1 14 -20 13 -28 11 -22 -5z"/>
<path d="M0 3040 c0 -5 5 -10 11 -10 5 0 7 5 4 10 -3 6 -8 10 -11 10 -2 0 -4
-4 -4 -10z"/>
<path d="M0 2812 c0 -4 11 -9 26 -10 14 -1 23 2 19 8 -7 12 -45 14 -45 2z"/>
<path d="M100 2759 c0 -9 7 -22 15 -29 19 -16 19 0 0 26 -12 16 -14 16 -15 3z"/>
<path d="M175 2690 c3 -5 10 -10 16 -10 5 0 9 5 9 10 0 6 -7 10 -16 10 -8 0
-12 -4 -9 -10z"/>
<path d="M180 2631 c0 -5 7 -12 16 -15 22 -9 24 -8 18 9 -7 16 -34 21 -34 6z"/>
<path d="M1822 2420 c0 -14 2 -19 5 -12 2 6 2 18 0 25 -3 6 -5 1 -5 -13z"/>
<path d="M2190 2385 c0 -8 2 -15 4 -15 2 0 6 7 10 15 3 8 1 15 -4 15 -6 0 -10
-7 -10 -15z"/>
<path d="M2221 2388 c3 -26 -1 -38 -13 -35 -6 1 -13 -5 -15 -13 -3 -12 4 -15
24 -14 37 2 37 2 25 17 -6 7 -9 23 -5 35 3 13 1 22 -6 22 -7 0 -11 -6 -10 -12z"/>
<path d="M2480 2306 c0 -2 7 -7 16 -10 8 -3 12 -2 9 4 -6 10 -25 14 -25 6z"/>
<path d="M4560 2209 c0 -5 5 -7 10 -4 6 3 10 8 10 11 0 2 -4 4 -10 4 -5 0 -10
-5 -10 -11z"/>
<path d="M5080 2190 c0 -5 5 -10 10 -10 6 0 10 5 10 10 0 6 -4 10 -10 10 -5 0
-10 -4 -10 -10z"/>
<path d="M5130 2180 c0 -5 5 -10 10 -10 6 0 10 5 10 10 0 6 -4 10 -10 10 -5 0
-10 -4 -10 -10z"/>
<path d="M6963 2159 c-2 -23 3 -25 10 -4 4 8 3 16 -1 19 -4 3 -9 -4 -9 -15z"/>
</g>
</svg>
